<?xml version="1.0" standalone="no"?>
 <!DOCTYPE svg PUBLIC "-//W3C//DTD SVG 1.1//EN" 
 "http://www.w3.org/Graphics/SVG/1.1/DTD/svg11.dtd"> 
<svg
  xmlns:svg="http://www.w3.org/2000/svg"
  xmlns="http://www.w3.org/2000/svg"
  xmlns:xlink="http://www.w3.org/1999/xlink"
  version="1.1"
  width="297.0022mm" height="210.0072mm" viewBox="0.0000 0.0000 297.0022 210.0072">
<title>SVG Image created as fet-wx-B_Cu.svg date 2025/06/08 21:32:42 </title>
  <desc>Image generated by PCBNEW </desc>
<g style="fill:#000000; fill-opacity:1.0000;stroke:#000000; stroke-opacity:1.0000;
stroke-linecap:round; stroke-linejoin:round;"
 transform="translate(0 0) scale(1 1)">
</g>
<g style="fill:#000000; fill-opacity:0.0; 
stroke:#000000; stroke-width:0.0000; stroke-opacity:1; 
stroke-linecap:round; stroke-linejoin:round;">
</g>
<g style="fill:#000000; fill-opacity:0.0; 
stroke:#000000; stroke-width:0.3000; stroke-opacity:1; 
stroke-linecap:round; stroke-linejoin:round;">
<text x="151.0800" y="118.8250"
transform="scale(-1 1) translate(-302.160000 0)"
textLength="10.0286" font-size="2.0000" lengthAdjust="spacingAndGlyphs"
text-anchor="start" opacity="0">OK1FET </text>
<g class="stroked-text"><desc>OK1FET </desc>
<path d="M150.2398 116.5646
L149.9541 116.5646
" />
<path d="M149.9541 116.5646
L149.8112 116.6599
" />
<path d="M149.8112 116.6599
L149.6683 116.8504
" />
<path d="M149.6683 116.8504
L149.5969 117.2313
" />
<path d="M149.5969 117.2313
L149.5969 117.8980
" />
<path d="M149.5969 117.8980
L149.6683 118.2789
" />
<path d="M149.6683 118.2789
L149.8112 118.4694
" />
<path d="M149.8112 118.4694
L149.9541 118.5646
" />
<path d="M149.9541 118.5646
L150.2398 118.5646
" />
<path d="M150.2398 118.5646
L150.3826 118.4694
" />
<path d="M150.3826 118.4694
L150.5255 118.2789
" />
<path d="M150.5255 118.2789
L150.5969 117.8980
" />
<path d="M150.5969 117.8980
L150.5969 117.2313
" />
<path d="M150.5969 117.2313
L150.5255 116.8504
" />
<path d="M150.5255 116.8504
L150.3826 116.6599
" />
<path d="M150.3826 116.6599
L150.2398 116.5646
" />
<path d="M148.9541 118.5646
L148.9541 116.5646
" />
<path d="M148.0969 118.5646
L148.7398 117.4218
" />
<path d="M148.0969 116.5646
L148.9541 117.7075
" />
<path d="M146.6683 118.5646
L147.5255 118.5646
" />
<path d="M147.0969 118.5646
L147.0969 116.5646
" />
<path d="M147.0969 116.5646
L147.2398 116.8504
" />
<path d="M147.2398 116.8504
L147.3826 117.0408
" />
<path d="M147.3826 117.0408
L147.5255 117.1361
" />
<path d="M145.5255 117.5170
L146.0255 117.5170
" />
<path d="M146.0255 118.5646
L146.0255 116.5646
" />
<path d="M146.0255 116.5646
L145.3112 116.5646
" />
<path d="M144.7398 117.5170
L144.2398 117.5170
" />
<path d="M144.0255 118.5646
L144.7398 118.5646
" />
<path d="M144.7398 118.5646
L144.7398 116.5646
" />
<path d="M144.7398 116.5646
L144.0255 116.5646
" />
<path d="M143.5969 116.5646
L142.7398 116.5646
" />
<path d="M143.1683 118.5646
L143.1683 116.5646
" />
</g><text x="151.0800" y="122.0450"
transform="scale(-1 1) translate(-302.160000 0)"
textLength="9.3143" font-size="2.0000" lengthAdjust="spacingAndGlyphs"
text-anchor="start" opacity="0">2025/5</text>
<g class="stroked-text"><desc>2025/5</desc>
<path d="M150.5969 119.9751
L150.5255 119.8799
" />
<path d="M150.5255 119.8799
L150.3826 119.7846
" />
<path d="M150.3826 119.7846
L150.0255 119.7846
" />
<path d="M150.0255 119.7846
L149.8826 119.8799
" />
<path d="M149.8826 119.8799
L149.8112 119.9751
" />
<path d="M149.8112 119.9751
L149.7398 120.1656
" />
<path d="M149.7398 120.1656
L149.7398 120.3561
" />
<path d="M149.7398 120.3561
L149.8112 120.6418
" />
<path d="M149.8112 120.6418
L150.6683 121.7846
" />
<path d="M150.6683 121.7846
L149.7398 121.7846
" />
<path d="M148.8112 119.7846
L148.6683 119.7846
" />
<path d="M148.6683 119.7846
L148.5255 119.8799
" />
<path d="M148.5255 119.8799
L148.4541 119.9751
" />
<path d="M148.4541 119.9751
L148.3826 120.1656
" />
<path d="M148.3826 120.1656
L148.3112 120.5465
" />
<path d="M148.3112 120.5465
L148.3112 121.0227
" />
<path d="M148.3112 121.0227
L148.3826 121.4037
" />
<path d="M148.3826 121.4037
L148.4541 121.5942
" />
<path d="M148.4541 121.5942
L148.5255 121.6894
" />
<path d="M148.5255 121.6894
L148.6683 121.7846
" />
<path d="M148.6683 121.7846
L148.8112 121.7846
" />
<path d="M148.8112 121.7846
L148.9541 121.6894
" />
<path d="M148.9541 121.6894
L149.0255 121.5942
" />
<path d="M149.0255 121.5942
L149.0969 121.4037
" />
<path d="M149.0969 121.4037
L149.1683 121.0227
" />
<path d="M149.1683 121.0227
L149.1683 120.5465
" />
<path d="M149.1683 120.5465
L149.0969 120.1656
" />
<path d="M149.0969 120.1656
L149.0255 119.9751
" />
<path d="M149.0255 119.9751
L148.9541 119.8799
" />
<path d="M148.9541 119.8799
L148.8112 119.7846
" />
<path d="M147.7398 119.9751
L147.6683 119.8799
" />
<path d="M147.6683 119.8799
L147.5255 119.7846
" />
<path d="M147.5255 119.7846
L147.1683 119.7846
" />
<path d="M147.1683 119.7846
L147.0255 119.8799
" />
<path d="M147.0255 119.8799
L146.9541 119.9751
" />
<path d="M146.9541 119.9751
L146.8826 120.1656
" />
<path d="M146.8826 120.1656
L146.8826 120.3561
" />
<path d="M146.8826 120.3561
L146.9541 120.6418
" />
<path d="M146.9541 120.6418
L147.8112 121.7846
" />
<path d="M147.8112 121.7846
L146.8826 121.7846
" />
<path d="M145.5255 119.7846
L146.2398 119.7846
" />
<path d="M146.2398 119.7846
L146.3112 120.7370
" />
<path d="M146.3112 120.7370
L146.2398 120.6418
" />
<path d="M146.2398 120.6418
L146.0969 120.5465
" />
<path d="M146.0969 120.5465
L145.7398 120.5465
" />
<path d="M145.7398 120.5465
L145.5969 120.6418
" />
<path d="M145.5969 120.6418
L145.5255 120.7370
" />
<path d="M145.5255 120.7370
L145.4541 120.9275
" />
<path d="M145.4541 120.9275
L145.4541 121.4037
" />
<path d="M145.4541 121.4037
L145.5255 121.5942
" />
<path d="M145.5255 121.5942
L145.5969 121.6894
" />
<path d="M145.5969 121.6894
L145.7398 121.7846
" />
<path d="M145.7398 121.7846
L146.0969 121.7846
" />
<path d="M146.0969 121.7846
L146.2398 121.6894
" />
<path d="M146.2398 121.6894
L146.3112 121.5942
" />
<path d="M143.7398 119.6894
L145.0255 122.2608
" />
<path d="M142.5255 119.7846
L143.2398 119.7846
" />
<path d="M143.2398 119.7846
L143.3112 120.7370
" />
<path d="M143.3112 120.7370
L143.2398 120.6418
" />
<path d="M143.2398 120.6418
L143.0969 120.5465
" />
<path d="M143.0969 120.5465
L142.7398 120.5465
" />
<path d="M142.7398 120.5465
L142.5969 120.6418
" />
<path d="M142.5969 120.6418
L142.5255 120.7370
" />
<path d="M142.5255 120.7370
L142.4541 120.9275
" />
<path d="M142.4541 120.9275
L142.4541 121.4037
" />
<path d="M142.4541 121.4037
L142.5255 121.5942
" />
<path d="M142.5255 121.5942
L142.5969 121.6894
" />
<path d="M142.5969 121.6894
L142.7398 121.7846
" />
<path d="M142.7398 121.7846
L143.0969 121.7846
" />
<path d="M143.0969 121.7846
L143.2398 121.6894
" />
<path d="M143.2398 121.6894
L143.3112 121.5942
" />
</g></g>
<g style="fill:#000000; fill-opacity:0.0; 
stroke:#000000; stroke-width:0.6250; stroke-opacity:1; 
stroke-linecap:round; stroke-linejoin:round;">
<text x="173.8800" y="91.3250"
transform="scale(-1 1) translate(-347.760000 0)"
textLength="46.7321" font-size="3.3333" lengthAdjust="spacingAndGlyphs"
text-anchor="start" opacity="0">LoRa APRS 433.775MHz</text>
<g class="stroked-text"><desc>LoRa APRS 433.775MHz</desc>
<path d="M171.6831 90.6806
L172.8736 90.6806
" />
<path d="M172.8736 90.6806
L172.8736 85.6806
" />
<path d="M170.4926 90.6806
L170.7307 90.4425
" />
<path d="M170.7307 90.4425
L170.8498 90.2044
" />
<path d="M170.8498 90.2044
L170.9688 89.7282
" />
<path d="M170.9688 89.7282
L170.9688 88.2996
" />
<path d="M170.9688 88.2996
L170.8498 87.8235
" />
<path d="M170.8498 87.8235
L170.7307 87.5854
" />
<path d="M170.7307 87.5854
L170.4926 87.3473
" />
<path d="M170.4926 87.3473
L170.1355 87.3473
" />
<path d="M170.1355 87.3473
L169.8974 87.5854
" />
<path d="M169.8974 87.5854
L169.7783 87.8235
" />
<path d="M169.7783 87.8235
L169.6593 88.2996
" />
<path d="M169.6593 88.2996
L169.6593 89.7282
" />
<path d="M169.6593 89.7282
L169.7783 90.2044
" />
<path d="M169.7783 90.2044
L169.8974 90.4425
" />
<path d="M169.8974 90.4425
L170.1355 90.6806
" />
<path d="M170.1355 90.6806
L170.4926 90.6806
" />
<path d="M167.1593 90.6806
L167.9926 88.2996
" />
<path d="M168.5879 90.6806
L168.5879 85.6806
" />
<path d="M168.5879 85.6806
L167.6355 85.6806
" />
<path d="M167.6355 85.6806
L167.3974 85.9187
" />
<path d="M167.3974 85.9187
L167.2783 86.1568
" />
<path d="M167.2783 86.1568
L167.1593 86.6330
" />
<path d="M167.1593 86.6330
L167.1593 87.3473
" />
<path d="M167.1593 87.3473
L167.2783 87.8235
" />
<path d="M167.2783 87.8235
L167.3974 88.0615
" />
<path d="M167.3974 88.0615
L167.6355 88.2996
" />
<path d="M167.6355 88.2996
L168.5879 88.2996
" />
<path d="M165.0164 90.6806
L165.0164 88.0615
" />
<path d="M165.0164 88.0615
L165.1355 87.5854
" />
<path d="M165.1355 87.5854
L165.3736 87.3473
" />
<path d="M165.3736 87.3473
L165.8498 87.3473
" />
<path d="M165.8498 87.3473
L166.0879 87.5854
" />
<path d="M165.0164 90.4425
L165.2545 90.6806
" />
<path d="M165.2545 90.6806
L165.8498 90.6806
" />
<path d="M165.8498 90.6806
L166.0879 90.4425
" />
<path d="M166.0879 90.4425
L166.2069 89.9663
" />
<path d="M166.2069 89.9663
L166.2069 89.4901
" />
<path d="M166.2069 89.4901
L166.0879 89.0139
" />
<path d="M166.0879 89.0139
L165.8498 88.7758
" />
<path d="M165.8498 88.7758
L165.2545 88.7758
" />
<path d="M165.2545 88.7758
L165.0164 88.5377
" />
<path d="M162.0402 89.2520
L160.8498 89.2520
" />
<path d="M162.2783 90.6806
L161.4450 85.6806
" />
<path d="M161.4450 85.6806
L160.6117 90.6806
" />
<path d="M159.7783 90.6806
L159.7783 85.6806
" />
<path d="M159.7783 85.6806
L158.8260 85.6806
" />
<path d="M158.8260 85.6806
L158.5879 85.9187
" />
<path d="M158.5879 85.9187
L158.4688 86.1568
" />
<path d="M158.4688 86.1568
L158.3498 86.6330
" />
<path d="M158.3498 86.6330
L158.3498 87.3473
" />
<path d="M158.3498 87.3473
L158.4688 87.8235
" />
<path d="M158.4688 87.8235
L158.5879 88.0615
" />
<path d="M158.5879 88.0615
L158.8260 88.2996
" />
<path d="M158.8260 88.2996
L159.7783 88.2996
" />
<path d="M155.8498 90.6806
L156.6831 88.2996
" />
<path d="M157.2783 90.6806
L157.2783 85.6806
" />
<path d="M157.2783 85.6806
L156.3260 85.6806
" />
<path d="M156.3260 85.6806
L156.0879 85.9187
" />
<path d="M156.0879 85.9187
L155.9688 86.1568
" />
<path d="M155.9688 86.1568
L155.8498 86.6330
" />
<path d="M155.8498 86.6330
L155.8498 87.3473
" />
<path d="M155.8498 87.3473
L155.9688 87.8235
" />
<path d="M155.9688 87.8235
L156.0879 88.0615
" />
<path d="M156.0879 88.0615
L156.3260 88.2996
" />
<path d="M156.3260 88.2996
L157.2783 88.2996
" />
<path d="M154.8974 90.4425
L154.5402 90.6806
" />
<path d="M154.5402 90.6806
L153.9450 90.6806
" />
<path d="M153.9450 90.6806
L153.7069 90.4425
" />
<path d="M153.7069 90.4425
L153.5879 90.2044
" />
<path d="M153.5879 90.2044
L153.4688 89.7282
" />
<path d="M153.4688 89.7282
L153.4688 89.2520
" />
<path d="M153.4688 89.2520
L153.5879 88.7758
" />
<path d="M153.5879 88.7758
L153.7069 88.5377
" />
<path d="M153.7069 88.5377
L153.9450 88.2996
" />
<path d="M153.9450 88.2996
L154.4212 88.0615
" />
<path d="M154.4212 88.0615
L154.6593 87.8235
" />
<path d="M154.6593 87.8235
L154.7783 87.5854
" />
<path d="M154.7783 87.5854
L154.8974 87.1092
" />
<path d="M154.8974 87.1092
L154.8974 86.6330
" />
<path d="M154.8974 86.6330
L154.7783 86.1568
" />
<path d="M154.7783 86.1568
L154.6593 85.9187
" />
<path d="M154.6593 85.9187
L154.4212 85.6806
" />
<path d="M154.4212 85.6806
L153.8260 85.6806
" />
<path d="M153.8260 85.6806
L153.4688 85.9187
" />
<path d="M149.4212 87.3473
L149.4212 90.6806
" />
<path d="M150.0164 85.4425
L150.6117 89.0139
" />
<path d="M150.6117 89.0139
L149.0641 89.0139
" />
<path d="M148.3498 85.6806
L146.8021 85.6806
" />
<path d="M146.8021 85.6806
L147.6355 87.5854
" />
<path d="M147.6355 87.5854
L147.2783 87.5854
" />
<path d="M147.2783 87.5854
L147.0402 87.8235
" />
<path d="M147.0402 87.8235
L146.9212 88.0615
" />
<path d="M146.9212 88.0615
L146.8021 88.5377
" />
<path d="M146.8021 88.5377
L146.8021 89.7282
" />
<path d="M146.8021 89.7282
L146.9212 90.2044
" />
<path d="M146.9212 90.2044
L147.0402 90.4425
" />
<path d="M147.0402 90.4425
L147.2783 90.6806
" />
<path d="M147.2783 90.6806
L147.9926 90.6806
" />
<path d="M147.9926 90.6806
L148.2307 90.4425
" />
<path d="M148.2307 90.4425
L148.3498 90.2044
" />
<path d="M145.9688 85.6806
L144.4212 85.6806
" />
<path d="M144.4212 85.6806
L145.2545 87.5854
" />
<path d="M145.2545 87.5854
L144.8974 87.5854
" />
<path d="M144.8974 87.5854
L144.6593 87.8235
" />
<path d="M144.6593 87.8235
L144.5402 88.0615
" />
<path d="M144.5402 88.0615
L144.4212 88.5377
" />
<path d="M144.4212 88.5377
L144.4212 89.7282
" />
<path d="M144.4212 89.7282
L144.5402 90.2044
" />
<path d="M144.5402 90.2044
L144.6593 90.4425
" />
<path d="M144.6593 90.4425
L144.8974 90.6806
" />
<path d="M144.8974 90.6806
L145.6117 90.6806
" />
<path d="M145.6117 90.6806
L145.8498 90.4425
" />
<path d="M145.8498 90.4425
L145.9688 90.2044
" />
<path d="M143.3498 90.2044
L143.2307 90.4425
" />
<path d="M143.2307 90.4425
L143.3498 90.6806
" />
<path d="M143.3498 90.6806
L143.4688 90.4425
" />
<path d="M143.4688 90.4425
L143.3498 90.2044
" />
<path d="M143.3498 90.2044
L143.3498 90.6806
" />
<path d="M142.3974 85.6806
L140.7307 85.6806
" />
<path d="M140.7307 85.6806
L141.8021 90.6806
" />
<path d="M140.0164 85.6806
L138.3498 85.6806
" />
<path d="M138.3498 85.6806
L139.4212 90.6806
" />
<path d="M136.2069 85.6806
L137.3974 85.6806
" />
<path d="M137.3974 85.6806
L137.5164 88.0615
" />
<path d="M137.5164 88.0615
L137.3974 87.8235
" />
<path d="M137.3974 87.8235
L137.1593 87.5854
" />
<path d="M137.1593 87.5854
L136.5641 87.5854
" />
<path d="M136.5641 87.5854
L136.3260 87.8235
" />
<path d="M136.3260 87.8235
L136.2069 88.0615
" />
<path d="M136.2069 88.0615
L136.0879 88.5377
" />
<path d="M136.0879 88.5377
L136.0879 89.7282
" />
<path d="M136.0879 89.7282
L136.2069 90.2044
" />
<path d="M136.2069 90.2044
L136.3260 90.4425
" />
<path d="M136.3260 90.4425
L136.5641 90.6806
" />
<path d="M136.5641 90.6806
L137.1593 90.6806
" />
<path d="M137.1593 90.6806
L137.3974 90.4425
" />
<path d="M137.3974 90.4425
L137.5164 90.2044
" />
<path d="M135.0164 90.6806
L135.0164 85.6806
" />
<path d="M135.0164 85.6806
L134.1831 89.2520
" />
<path d="M134.1831 89.2520
L133.3498 85.6806
" />
<path d="M133.3498 85.6806
L133.3498 90.6806
" />
<path d="M132.1593 90.6806
L132.1593 85.6806
" />
<path d="M132.1593 88.0615
L130.7307 88.0615
" />
<path d="M130.7307 90.6806
L130.7307 85.6806
" />
<path d="M129.7783 87.3473
L128.4688 87.3473
" />
<path d="M128.4688 87.3473
L129.7783 90.6806
" />
<path d="M129.7783 90.6806
L128.4688 90.6806
" />
</g></g>
<g style="fill:#000000; fill-opacity:0.0; 
stroke:#000000; stroke-width:0.7500; stroke-opacity:1; 
stroke-linecap:round; stroke-linejoin:round;">
<text x="126.6600" y="118.7450"
transform="scale(-1 1) translate(-253.320000 0)"
textLength="21.3643" font-size="4.0000" lengthAdjust="spacingAndGlyphs"
text-anchor="start" opacity="0">FET-MET</text>
<g class="stroked-text"><desc>FET-MET</desc>
<path d="M124.4523 115.4750
L125.4523 115.4750
" />
<path d="M125.4523 118.0941
L125.4523 113.0941
" />
<path d="M125.4523 113.0941
L124.0237 113.0941
" />
<path d="M122.8809 115.4750
L121.8809 115.4750
" />
<path d="M121.4523 118.0941
L122.8809 118.0941
" />
<path d="M122.8809 118.0941
L122.8809 113.0941
" />
<path d="M122.8809 113.0941
L121.4523 113.0941
" />
<path d="M120.5951 113.0941
L118.8809 113.0941
" />
<path d="M119.7380 118.0941
L119.7380 113.0941
" />
<path d="M117.8809 116.1893
L115.5951 116.1893
" />
<path d="M114.1666 118.0941
L114.1666 113.0941
" />
<path d="M114.1666 113.0941
L113.1666 116.6655
" />
<path d="M113.1666 116.6655
L112.1666 113.0941
" />
<path d="M112.1666 113.0941
L112.1666 118.0941
" />
<path d="M110.7380 115.4750
L109.7380 115.4750
" />
<path d="M109.3094 118.0941
L110.7380 118.0941
" />
<path d="M110.7380 118.0941
L110.7380 113.0941
" />
<path d="M110.7380 113.0941
L109.3094 113.0941
" />
<path d="M108.4523 113.0941
L106.7380 113.0941
" />
<path d="M107.5951 118.0941
L107.5951 113.0941
" />
</g></g>
<g style="fill:#000000; fill-opacity:0.0; 
stroke:#000000; stroke-width:0.3000; stroke-opacity:1; 
stroke-linecap:round; stroke-linejoin:round;">
<text x="118.8300" y="121.9550"
transform="scale(-1 1) translate(-237.660000 0)"
textLength="3.3143" font-size="2.0000" lengthAdjust="spacingAndGlyphs"
text-anchor="start" opacity="0">V2</text>
<g class="stroked-text"><desc>V2</desc>
<path d="M118.4898 120.2558
L117.9898 121.7558
" />
<path d="M117.9898 121.7558
L117.4898 120.2558
" />
<path d="M117.0612 120.3987
L116.9898 120.3273
" />
<path d="M116.9898 120.3273
L116.8469 120.2558
" />
<path d="M116.8469 120.2558
L116.4898 120.2558
" />
<path d="M116.4898 120.2558
L116.3469 120.3273
" />
<path d="M116.3469 120.3273
L116.2755 120.3987
" />
<path d="M116.2755 120.3987
L116.2041 120.5415
" />
<path d="M116.2041 120.5415
L116.2041 120.6844
" />
<path d="M116.2041 120.6844
L116.2755 120.8987
" />
<path d="M116.2755 120.8987
L117.1326 121.7558
" />
<path d="M117.1326 121.7558
L116.2041 121.7558
" />
</g><g >
</g>
<g >
</g>
<g >
</g>
<g style="fill:#000000; fill-opacity:0.0; 
stroke:#000000; stroke-width:0.3000; stroke-opacity:1; 
stroke-linecap:round; stroke-linejoin:round;">
</g>
<g style="fill:#000000; fill-opacity:1.0000; 
stroke:#000000; stroke-width:0.0000; stroke-opacity:1; 
stroke-linecap:round; stroke-linejoin:round;">
<circle cx="129.9500" cy="111.1250" r="1.0000" /> 
</g>
<g style="fill:#000000; fill-opacity:1.0000; 
stroke:#000000; stroke-width:0.0212; stroke-opacity:1; 
stroke-linecap:round; stroke-linejoin:round;">
</g>
<g style="fill:#000000; fill-opacity:1.0000; 
stroke:#000000; stroke-width:0.0000; stroke-opacity:1; 
stroke-linecap:round; stroke-linejoin:round;">
<circle cx="127.4500" cy="111.1250" r="1.0000" /> 
</g>
<g style="fill:#000000; fill-opacity:1.0000; 
stroke:#000000; stroke-width:0.0212; stroke-opacity:1; 
stroke-linecap:round; stroke-linejoin:round;">
</g>
<g >
</g>
<g style="fill:#000000; fill-opacity:1.0000; 
stroke:#000000; stroke-width:0.0212; stroke-opacity:1; 
stroke-linecap:round; stroke-linejoin:round;">
</g>
<g style="fill:#000000; fill-opacity:1.0000; 
stroke:#000000; stroke-width:1.6000; stroke-opacity:1; 
stroke-linecap:round; stroke-linejoin:round;">
</g>
<g style="fill:#000000; fill-opacity:0.0; 
stroke:#000000; stroke-width:1.6000; stroke-opacity:1; 
stroke-linecap:round; stroke-linejoin:round;">
<path d="M109.0000 91.0800
L108.0000 91.0800
" />
<path d="M109.0000 88.5400
L108.0000 88.5400
" />
</g>
<g >
</g>
<g style="fill:#000000; fill-opacity:0.0; 
stroke:#000000; stroke-width:1.6000; stroke-opacity:1; 
stroke-linecap:round; stroke-linejoin:round;">
<path d="M111.3500 100.0400
L110.3500 100.0400
" />
<path d="M111.4000 97.5000
L110.3000 97.5000
" />
</g>
<g >
</g>
<g style="fill:#000000; fill-opacity:0.0; 
stroke:#000000; stroke-width:1.6000; stroke-opacity:1; 
stroke-linecap:round; stroke-linejoin:round;">
</g>
<g style="fill:#000000; fill-opacity:1.0000; 
stroke:#000000; stroke-width:0.0000; stroke-opacity:1; 
stroke-linecap:round; stroke-linejoin:round;">
<circle cx="124.0900" cy="87.7700" r="1.6000" /> 
</g>
<g style="fill:#000000; fill-opacity:1.0000; 
stroke:#000000; stroke-width:0.0212; stroke-opacity:1; 
stroke-linecap:round; stroke-linejoin:round;">
</g>
<g style="fill:#000000; fill-opacity:1.0000; 
stroke:#000000; stroke-width:0.0000; stroke-opacity:1; 
stroke-linecap:round; stroke-linejoin:round;">
<circle cx="179.7000" cy="87.7700" r="1.6000" /> 
</g>
<g style="fill:#000000; fill-opacity:1.0000; 
stroke:#000000; stroke-width:0.0212; stroke-opacity:1; 
stroke-linecap:round; stroke-linejoin:round;">
</g>
<g style="fill:#000000; fill-opacity:1.0000; 
stroke:#000000; stroke-width:0.0000; stroke-opacity:1; 
stroke-linecap:round; stroke-linejoin:round;">
<circle cx="115.4450" cy="87.7700" r="1.7500" /> 
</g>
<g style="fill:#000000; fill-opacity:1.0000; 
stroke:#000000; stroke-width:0.0212; stroke-opacity:1; 
stroke-linecap:round; stroke-linejoin:round;">
</g>
<g style="fill:#000000; fill-opacity:1.0000; 
stroke:#000000; stroke-width:0.0000; stroke-opacity:1; 
stroke-linecap:round; stroke-linejoin:round;">
<circle cx="187.4450" cy="87.7700" r="1.7500" /> 
</g>
<g style="fill:#000000; fill-opacity:1.0000; 
stroke:#000000; stroke-width:0.0212; stroke-opacity:1; 
stroke-linecap:round; stroke-linejoin:round;">
</g>
<g >
</g>
<g style="fill:#000000; fill-opacity:1.0000; 
stroke:#000000; stroke-width:0.0212; stroke-opacity:1; 
stroke-linecap:round; stroke-linejoin:round;">
</g>
<g style="fill:#000000; fill-opacity:1.0000; 
stroke:#000000; stroke-width:0.0000; stroke-opacity:1; 
stroke-linecap:round; stroke-linejoin:round;">
<path style="fill:#000000; fill-opacity:1.0000; 
stroke:#000000; stroke-width:0.0000; stroke-opacity:1; 
stroke-linecap:round; stroke-linejoin:round;fill-rule:evenodd;"
d="M 170.4500,101.5750
172.5500,101.5750
172.5500,103.6750
170.4500,103.6750
Z" /> 
<circle cx="168.9600" cy="102.6250" r="1.0500" /> 
</g>
<g style="fill:#000000; fill-opacity:1.0000; 
stroke:#000000; stroke-width:0.0212; stroke-opacity:1; 
stroke-linecap:round; stroke-linejoin:round;">
</g>
<g style="fill:#000000; fill-opacity:1.0000; 
stroke:#000000; stroke-width:0.0000; stroke-opacity:1; 
stroke-linecap:round; stroke-linejoin:round;">
<circle cx="166.4200" cy="102.6250" r="1.0500" /> 
</g>
<g style="fill:#000000; fill-opacity:1.0000; 
stroke:#000000; stroke-width:0.0212; stroke-opacity:1; 
stroke-linecap:round; stroke-linejoin:round;">
</g>
<g style="fill:#000000; fill-opacity:1.0000; 
stroke:#000000; stroke-width:0.0000; stroke-opacity:1; 
stroke-linecap:round; stroke-linejoin:round;">
<circle cx="163.8800" cy="102.6250" r="1.0500" /> 
</g>
<g style="fill:#000000; fill-opacity:1.0000; 
stroke:#000000; stroke-width:0.0212; stroke-opacity:1; 
stroke-linecap:round; stroke-linejoin:round;">
</g>
<g >
</g>
<g style="fill:#000000; fill-opacity:1.0000; 
stroke:#000000; stroke-width:0.0212; stroke-opacity:1; 
stroke-linecap:round; stroke-linejoin:round;">
</g>
<g style="fill:#000000; fill-opacity:1.0000; 
stroke:#000000; stroke-width:0.0000; stroke-opacity:1; 
stroke-linecap:round; stroke-linejoin:round;">
<circle cx="127.2700" cy="116.0950" r="1.0000" /> 
</g>
<g style="fill:#000000; fill-opacity:1.0000; 
stroke:#000000; stroke-width:0.0212; stroke-opacity:1; 
stroke-linecap:round; stroke-linejoin:round;">
</g>
<g style="fill:#000000; fill-opacity:1.0000; 
stroke:#000000; stroke-width:0.0000; stroke-opacity:1; 
stroke-linecap:round; stroke-linejoin:round;">
<circle cx="134.8900" cy="116.0950" r="1.0000" /> 
</g>
<g style="fill:#000000; fill-opacity:1.0000; 
stroke:#000000; stroke-width:0.0212; stroke-opacity:1; 
stroke-linecap:round; stroke-linejoin:round;">
</g>
<g >
</g>
<g >
</g>
<g >
</g>
<g style="fill:#000000; fill-opacity:1.0000; 
stroke:#000000; stroke-width:0.0212; stroke-opacity:1; 
stroke-linecap:round; stroke-linejoin:round;">
</g>
<g style="fill:#000000; fill-opacity:1.0000; 
stroke:#000000; stroke-width:0.0000; stroke-opacity:1; 
stroke-linecap:round; stroke-linejoin:round;">
<circle cx="133.0200" cy="111.1250" r="1.0000" /> 
</g>
<g style="fill:#000000; fill-opacity:1.0000; 
stroke:#000000; stroke-width:0.0212; stroke-opacity:1; 
stroke-linecap:round; stroke-linejoin:round;">
</g>
<g style="fill:#000000; fill-opacity:1.0000; 
stroke:#000000; stroke-width:0.0000; stroke-opacity:1; 
stroke-linecap:round; stroke-linejoin:round;">
<circle cx="135.5200" cy="111.1250" r="1.0000" /> 
</g>
<g style="fill:#000000; fill-opacity:1.0000; 
stroke:#000000; stroke-width:0.0212; stroke-opacity:1; 
stroke-linecap:round; stroke-linejoin:round;">
</g>
<g >
</g>
<g style="fill:#000000; fill-opacity:1.0000; 
stroke:#000000; stroke-width:0.0212; stroke-opacity:1; 
stroke-linecap:round; stroke-linejoin:round;">
</g>
<g style="fill:#000000; fill-opacity:1.0000; 
stroke:#000000; stroke-width:0.0000; stroke-opacity:1; 
stroke-linecap:round; stroke-linejoin:round;">
<circle cx="179.1600" cy="107.4000" r="1.0000" /> 
</g>
<g style="fill:#000000; fill-opacity:1.0000; 
stroke:#000000; stroke-width:0.0212; stroke-opacity:1; 
stroke-linecap:round; stroke-linejoin:round;">
</g>
<g style="fill:#000000; fill-opacity:1.0000; 
stroke:#000000; stroke-width:0.0000; stroke-opacity:1; 
stroke-linecap:round; stroke-linejoin:round;">
<circle cx="181.7000" cy="107.4000" r="1.0000" /> 
</g>
<g style="fill:#000000; fill-opacity:1.0000; 
stroke:#000000; stroke-width:0.0212; stroke-opacity:1; 
stroke-linecap:round; stroke-linejoin:round;">
</g>
<g >
</g>
<g style="fill:#000000; fill-opacity:1.0000; 
stroke:#000000; stroke-width:0.0212; stroke-opacity:1; 
stroke-linecap:round; stroke-linejoin:round;">
</g>
<g style="fill:#000000; fill-opacity:1.0000; 
stroke:#000000; stroke-width:0.0000; stroke-opacity:1; 
stroke-linecap:round; stroke-linejoin:round;">
<circle cx="172.7450" cy="120.6450" r="0.2500" /> 
</g>
<g style="fill:#000000; fill-opacity:1.0000; 
stroke:#000000; stroke-width:0.0212; stroke-opacity:1; 
stroke-linecap:round; stroke-linejoin:round;">
</g>
<g style="fill:#000000; fill-opacity:1.0000; 
stroke:#000000; stroke-width:0.0000; stroke-opacity:1; 
stroke-linecap:round; stroke-linejoin:round;">
<circle cx="184.7450" cy="120.6450" r="0.2500" /> 
</g>
<g style="fill:#000000; fill-opacity:1.0000; 
stroke:#000000; stroke-width:0.0212; stroke-opacity:1; 
stroke-linecap:round; stroke-linejoin:round;">
</g>
<g style="fill:#000000; fill-opacity:1.0000; 
stroke:#000000; stroke-width:1.6000; stroke-opacity:1; 
stroke-linecap:round; stroke-linejoin:round;">
</g>
<g style="fill:#000000; fill-opacity:0.0; 
stroke:#000000; stroke-width:1.6000; stroke-opacity:1; 
stroke-linecap:round; stroke-linejoin:round;">
<path d="M177.2150 118.6450
L177.2150 118.0450
" />
<path d="M178.2350 116.1050
L178.2350 115.5050
" />
<path d="M179.2550 118.6450
L179.2550 118.0450
" />
<path d="M180.2750 116.1050
L180.2750 115.5050
" />
</g>
<g >
</g>
<g style="fill:#000000; fill-opacity:0.0; 
stroke:#000000; stroke-width:1.6000; stroke-opacity:1; 
stroke-linecap:round; stroke-linejoin:round;">
<path d="M114.8525 102.5720
L115.8525 102.5720
" />
<path d="M117.8925 103.0720
L117.8925 102.0720
" />
<path d="M120.4325 103.0720
L120.4325 102.0720
" />
<path d="M122.9725 103.0720
L122.9725 102.0720
" />
</g>
<g style="fill:#000000; fill-opacity:0.0; 
stroke:#000000; stroke-width:1.5240; stroke-opacity:1; 
stroke-linecap:round; stroke-linejoin:round;">
<path d="M125.5125 103.1100
L125.5125 102.0340
" />
<path d="M128.0525 103.1100
L128.0525 102.0340
" />
<path d="M130.5925 103.1100
L130.5925 102.0340
" />
</g>
<g style="fill:#000000; fill-opacity:0.0; 
stroke:#000000; stroke-width:1.6000; stroke-opacity:1; 
stroke-linecap:round; stroke-linejoin:round;">
<path d="M133.1325 103.0720
L133.1325 102.0720
" />
</g>
<g style="fill:#000000; fill-opacity:0.0; 
stroke:#000000; stroke-width:1.5240; stroke-opacity:1; 
stroke-linecap:round; stroke-linejoin:round;">
<path d="M135.6725 103.1100
L135.6725 102.0340
" />
</g>
<g style="fill:#000000; fill-opacity:0.0; 
stroke:#000000; stroke-width:1.6000; stroke-opacity:1; 
stroke-linecap:round; stroke-linejoin:round;">
<path d="M138.2125 103.0720
L138.2125 102.0720
" />
</g>
<g style="fill:#000000; fill-opacity:0.0; 
stroke:#000000; stroke-width:1.5240; stroke-opacity:1; 
stroke-linecap:round; stroke-linejoin:round;">
<path d="M140.7525 103.1100
L140.7525 102.0340
" />
<path d="M143.2925 103.1100
L143.2925 102.0340
" />
</g>
<g style="fill:#000000; fill-opacity:0.0; 
stroke:#000000; stroke-width:1.6000; stroke-opacity:1; 
stroke-linecap:round; stroke-linejoin:round;">
<path d="M145.3325 102.5720
L146.3325 102.5720
" />
<path d="M115.3525 126.1180
L115.3525 125.1180
" />
</g>
<g style="fill:#000000; fill-opacity:0.0; 
stroke:#000000; stroke-width:1.5240; stroke-opacity:1; 
stroke-linecap:round; stroke-linejoin:round;">
<path d="M117.8925 126.1560
L117.8925 125.0800
" />
<path d="M120.4325 126.1560
L120.4325 125.0800
" />
<path d="M122.9725 126.1560
L122.9725 125.0800
" />
<path d="M125.5125 126.1560
L125.5125 125.0800
" />
</g>
<g style="fill:#000000; fill-opacity:0.0; 
stroke:#000000; stroke-width:1.6000; stroke-opacity:1; 
stroke-linecap:round; stroke-linejoin:round;">
<path d="M128.0525 126.1180
L128.0525 125.1180
" />
<path d="M130.5925 126.1180
L130.5925 125.1180
" />
<path d="M133.1325 126.1180
L133.1325 125.1180
" />
</g>
<g style="fill:#000000; fill-opacity:0.0; 
stroke:#000000; stroke-width:1.5240; stroke-opacity:1; 
stroke-linecap:round; stroke-linejoin:round;">
<path d="M135.6725 126.1560
L135.6725 125.0800
" />
</g>
<g style="fill:#000000; fill-opacity:0.0; 
stroke:#000000; stroke-width:1.6000; stroke-opacity:1; 
stroke-linecap:round; stroke-linejoin:round;">
<path d="M138.2125 126.1180
L138.2125 125.1180
" />
</g>
<g style="fill:#000000; fill-opacity:0.0; 
stroke:#000000; stroke-width:1.5240; stroke-opacity:1; 
stroke-linecap:round; stroke-linejoin:round;">
<path d="M140.7525 126.1560
L140.7525 125.0800
" />
<path d="M143.2925 126.1560
L143.2925 125.0800
" />
</g>
<g style="fill:#000000; fill-opacity:0.0; 
stroke:#000000; stroke-width:1.6000; stroke-opacity:1; 
stroke-linecap:round; stroke-linejoin:round;">
<path d="M145.8325 126.1180
L145.8325 125.1180
" />
</g>
<g >
</g>
<g style="fill:#000000; fill-opacity:0.0; 
stroke:#000000; stroke-width:1.6000; stroke-opacity:1; 
stroke-linecap:round; stroke-linejoin:round;">
</g>
<g style="fill:#000000; fill-opacity:1.0000; 
stroke:#000000; stroke-width:0.0000; stroke-opacity:1; 
stroke-linecap:round; stroke-linejoin:round;">
<circle cx="155.1950" cy="120.6450" r="0.2500" /> 
</g>
<g style="fill:#000000; fill-opacity:1.0000; 
stroke:#000000; stroke-width:0.0212; stroke-opacity:1; 
stroke-linecap:round; stroke-linejoin:round;">
</g>
<g style="fill:#000000; fill-opacity:1.0000; 
stroke:#000000; stroke-width:0.0000; stroke-opacity:1; 
stroke-linecap:round; stroke-linejoin:round;">
<circle cx="167.1950" cy="120.6450" r="0.2500" /> 
</g>
<g style="fill:#000000; fill-opacity:1.0000; 
stroke:#000000; stroke-width:0.0212; stroke-opacity:1; 
stroke-linecap:round; stroke-linejoin:round;">
</g>
<g style="fill:#000000; fill-opacity:1.0000; 
stroke:#000000; stroke-width:1.6000; stroke-opacity:1; 
stroke-linecap:round; stroke-linejoin:round;">
</g>
<g style="fill:#000000; fill-opacity:0.0; 
stroke:#000000; stroke-width:1.6000; stroke-opacity:1; 
stroke-linecap:round; stroke-linejoin:round;">
<path d="M159.6650 118.6450
L159.6650 118.0450
" />
<path d="M160.6850 116.1050
L160.6850 115.5050
" />
<path d="M161.7050 118.6450
L161.7050 118.0450
" />
<path d="M162.7250 116.1050
L162.7250 115.5050
" />
</g>
<g >
</g>
<g >
</g>
<g style="fill:#000000; fill-opacity:0.0; 
stroke:#000000; stroke-width:1.6000; stroke-opacity:1; 
stroke-linecap:round; stroke-linejoin:round;">
</g>
<g style="fill:#000000; fill-opacity:0.0; 
stroke:#000000; stroke-width:0.3000; stroke-opacity:1; 
stroke-linecap:round; stroke-linejoin:round;">
<path d="M106.2200 77.1850
L106.1900 77.2150
" />
<path d="M106.2000 131.9250
L191.8500 131.9250
" />
<path d="M191.9700 77.1850
L191.9700 131.7650
" />
<path d="M106.1900 77.2150
L106.1900 131.9150
" />
<path d="M106.1900 131.9150
L106.2000 131.9250
" />
<path d="M191.9500 77.1850
L106.2200 77.1850
" />
</g>
<g style="fill:#000000; fill-opacity:0.0; 
stroke:#000000; stroke-width:1.2000; stroke-opacity:1; 
stroke-linecap:round; stroke-linejoin:round;">
<path d="M115.2650 97.5000
L110.8500 97.5000
" />
<path d="M115.3900 87.5500
L115.3900 97.4600
" />
<path d="M130.5500 129.3500
L179.3000 129.3500
" />
<path d="M130.5925 125.6180
L130.5925 111.7675
" />
<path d="M130.5250 125.7052
L130.5250 129.3048
" />
<path d="M130.5925 111.7675
L129.9500 111.1250
" />
<path d="M179.3400 122.4150
L179.3400 129.2150
" />
<path d="M179.3450 123.0200
L179.3450 119.0350
" />
<path d="M178.2000 97.0150
L187.4450 87.7700
" />
<path d="M160.6850 115.8050
L160.6850 109.3250
" />
<path d="M127.2600 110.7650
L127.2600 109.3250
" />
<path d="M117.8925 100.1875
L117.7450 100.0400
" />
<path d="M117.8925 102.5720
L117.8925 100.1875
" />
<path d="M135.2900 111.0100
L135.2900 109.3800
" />
<path d="M160.6850 109.3250
L160.7150 109.2950
" />
<path d="M118.1900 109.3250
L117.8925 109.0275
" />
<path d="M117.8925 109.0275
L117.8925 102.5720
" />
<path d="M120.2200 97.8600
L120.2200 82.1550
" />
<path d="M127.2700 111.2650
L127.2700 115.7650
" />
<path d="M187.4800 82.1550
L120.2200 82.1550
" />
<path d="M127.2600 109.3250
L118.1900 109.3250
" />
<path d="M178.2000 97.0150
L178.2350 97.0500
" />
<path d="M160.7150 109.2950
L127.2450 109.2950
" />
<path d="M108.4700 88.2875
L108.4700 82.1825
" />
<path d="M117.7450 100.0400
L110.8500 100.0400
" />
<path d="M178.2350 97.0500
L178.2350 115.8050
" />
<path d="M119.9700 82.1750
L108.5300 82.1750
" />
<path d="M117.8925 100.1875
L120.2200 97.8600
" />
<path d="M187.4900 82.1850
L187.4900 87.2650
" />
<path d="M161.7500 123.5950
L161.7500 119.2400
" />
<path d="M133.0200 125.5055
L133.1325 125.6180
" />
<path d="M133.1100 127.6673
L133.1100 125.6427
" />
<path d="M133.0200 111.1250
L133.0200 125.5055
" />
<path d="M161.7600 127.7250
L133.1400 127.7250
" />
<path d="M161.7600 122.7550
L161.7600 127.6550
" />
<path d="M108.4700 102.5650
L108.4700 91.0000
" />
<path d="M115.3525 102.5720
L108.5730 102.5720
" />
<path d="M120.4325 102.5720
L120.4325 105.1225
" />
<path d="M171.3900 105.3150
L171.5400 105.1650
" />
<path d="M171.6600 105.2850
L171.6600 102.7850
" />
<path d="M162.7700 105.4250
L171.6200 105.4250
" />
<path d="M162.7250 115.8050
L162.7250 105.4700
" />
<path d="M120.4700 105.4250
L162.7700 105.4250
" />
<path d="M162.7250 105.4700
L162.7700 105.4250
" />
<path d="M123.1200 98.8850
L168.8200 98.8850
" />
<path d="M122.9700 102.4447
L122.9700 98.9052
" />
<path d="M168.9200 98.9050
L168.9200 102.5050
" />
<path d="M138.2000 100.6350
L138.3200 100.5150
" />
<path d="M138.2000 102.4472
L138.2000 100.5228
" />
<path d="M166.5000 100.5650
L166.5000 102.4850
" />
<path d="M138.3200 100.4750
L166.3900 100.4750
" />
<path d="M157.8600 102.6050
L145.8655 102.6050
" />
<path d="M157.8400 102.6050
L163.8400 102.6050
" />
<path d="M145.8655 102.6050
L145.8325 102.5720
" />
<path d="M157.9800 118.2800
L158.0450 118.3450
" />
<path d="M158.0450 118.3450
L159.6650 118.3450
" />
<path d="M138.2125 113.8725
L138.3000 113.7850
" />
<path d="M138.2125 125.6180
L138.2125 113.8725
" />
<path d="M157.9800 113.7850
L157.9800 118.2800
" />
<path d="M157.9800 113.7850
L138.3000 113.7850
" />
<path d="M134.8900 116.0950
L137.4200 116.0950
" />
<path d="M128.0552 130.9750
L181.5500 130.9750
" />
<path d="M182.6625 123.3625
L181.7375 124.2875
" />
<path d="M182.7000 108.4000
L182.7000 123.2802
" />
<path d="M181.7000 124.5052
L181.7000 130.7500
" />
<path d="M128.0300 130.9498
L128.0300 125.5002
" />
<path d="M181.7000 107.4000
L182.7000 108.4000
" />
<path d="M128.0300 130.9498
L128.0552 130.9750
" />
</g>
<g >
</g>
<g style="fill:#000000; fill-opacity:0.0; 
stroke:#000000; stroke-width:1.2000; stroke-opacity:1; 
stroke-linecap:round; stroke-linejoin:round;">
<g >
</g>
<g style="fill:#000000; fill-opacity:1.0000; 
stroke:#000000; stroke-width:0.0000; stroke-opacity:1; 
stroke-linecap:round; stroke-linejoin:round;">
<path style="fill:#000000; fill-opacity:1.0000; 
stroke:#000000; stroke-width:0.0000; stroke-opacity:1; 
stroke-linecap:round; stroke-linejoin:round;fill-rule:evenodd;"
d="M 128.6847,112.0062
128.7102,112.0109
128.7485,112.0410
128.8800,112.1950
128.9942,112.2925
129.0606,112.3492
129.0606,112.3492
129.2630,112.4732
129.4075,112.5331
129.4619,112.5769
129.4839,112.6432
129.4840,112.6476
129.4840,124.3807
129.4643,124.4477
129.4616,124.4518
129.4550,124.4612
129.4349,124.5043
129.3887,124.5568
129.3215,124.5759
129.2546,124.5557
129.2101,124.5043
129.1900,124.4612
129.1834,124.4518
129.0587,124.2737
128.8968,124.1118
128.7092,123.9805
128.7077,123.9798
128.5017,123.8837
128.5017,123.8837
128.2806,123.8244
128.2806,123.8244
128.0525,123.8045
128.0525,123.8045
127.8244,123.8244
127.8244,123.8244
127.6033,123.8837
127.6032,123.8837
127.3958,123.9805
127.3958,123.9805
127.3958,123.9805
127.2082,124.1118
127.2082,124.1118
127.2082,124.1118
127.0463,124.2737
127.0463,124.2737
127.0463,124.2737
126.9734,124.3777
126.9150,124.4612
126.8827,124.5304
126.8366,124.5828
126.7694,124.6020
126.7025,124.5817
126.6586,124.5318
126.6581,124.5306
126.6076,124.4257
126.6036,124.4202
126.4731,124.2407
126.4731,124.2407
126.3078,124.0827
126.3078,124.0827
126.1530,123.9805
126.1170,123.9567
126.1170,123.9567
126.1170,123.9567
125.9067,123.8668
125.9067,123.8668
125.6837,123.8159
125.6837,123.8159
125.6837,123.8159
125.6837,123.8159
125.6837,123.8159
125.4553,123.8056
125.4553,123.8056
125.4553,123.8056
125.3164,123.8244
125.2286,123.8363
125.2286,123.8363
125.0111,123.9070
124.8098,124.0154
124.8098,124.0154
124.6310,124.1580
124.5299,124.2737
124.4805,124.3302
124.3764,124.5043
124.3632,124.5265
124.3632,124.5265
124.3569,124.5433
124.3149,124.5991
124.2494,124.6234
124.1812,124.6084
124.1319,124.5589
124.1291,124.5535
124.1161,124.5265
124.0676,124.4257
124.0636,124.4202
123.9331,124.2407
123.9331,124.2407
123.7678,124.0827
123.7678,124.0827
123.6130,123.9805
123.5770,123.9567
123.5770,123.9567
123.5770,123.9567
123.3667,123.8668
123.3667,123.8668
123.1437,123.8159
123.1437,123.8159
123.1437,123.8159
123.1437,123.8159
123.1437,123.8159
122.9153,123.8056
122.9153,123.8056
122.9153,123.8056
122.7764,123.8244
122.6886,123.8363
122.6886,123.8363
122.4711,123.9070
122.2698,124.0154
122.2698,124.0154
122.0910,124.1580
121.9899,124.2737
121.9405,124.3302
121.8364,124.5043
121.8232,124.5265
121.8232,124.5265
121.8169,124.5433
121.7749,124.5991
121.7094,124.6234
121.6412,124.6084
121.5919,124.5589
121.5891,124.5535
121.5761,124.5265
121.5276,124.4257
121.5236,124.4202
121.3931,124.2407
121.3931,124.2407
121.2278,124.0827
121.2278,124.0827
121.0730,123.9805
121.0370,123.9567
121.0370,123.9567
121.0370,123.9567
120.8267,123.8668
120.8267,123.8668
120.6037,123.8159
120.6037,123.8159
120.6037,123.8159
120.6037,123.8159
120.6037,123.8159
120.3753,123.8056
120.3753,123.8056
120.3753,123.8056
120.2364,123.8244
120.1486,123.8363
120.1486,123.8363
119.9311,123.9070
119.7298,124.0154
119.7298,124.0154
119.5510,124.1580
119.4499,124.2737
119.4005,124.3302
119.2964,124.5043
119.2832,124.5265
119.2832,124.5265
119.2769,124.5433
119.2349,124.5991
119.1694,124.6234
119.1012,124.6084
119.0519,124.5589
119.0491,124.5535
119.0361,124.5265
118.9876,124.4257
118.9836,124.4202
118.8531,124.2407
118.8531,124.2407
118.6878,124.0827
118.6878,124.0827
118.5330,123.9805
118.4970,123.9567
118.4970,123.9567
118.4970,123.9567
118.2867,123.8668
118.2867,123.8668
118.0637,123.8159
118.0637,123.8159
118.0637,123.8159
118.0637,123.8159
118.0637,123.8159
117.8353,123.8056
117.8353,123.8056
117.8353,123.8056
117.6964,123.8244
117.6086,123.8363
117.6086,123.8363
117.3911,123.9070
117.1898,124.0154
117.1898,124.0154
117.0110,124.1580
116.9099,124.2737
116.8605,124.3302
116.7432,124.5265
116.7432,124.5265
116.7403,124.5313
116.7392,124.5306
116.6967,124.5776
116.6293,124.5959
116.5627,124.5749
116.5195,124.5244
116.4900,124.4612
116.3587,124.2737
116.1968,124.1118
116.0092,123.9805
116.0077,123.9798
115.8017,123.8837
115.8017,123.8837
115.5806,123.8244
115.5806,123.8244
115.3525,123.8045
115.3525,123.8045
115.1244,123.8244
115.1244,123.8244
114.9033,123.8837
114.9032,123.8837
114.6958,123.9805
114.6958,123.9805
114.6958,123.9805
114.5082,124.1118
114.5082,124.1118
114.5082,124.1118
114.3463,124.2737
114.3463,124.2737
114.3463,124.2737
114.2714,124.3807
114.2150,124.4612
114.2150,124.4612
114.1182,124.6687
114.1182,124.6687
114.0590,124.8899
114.0590,124.8899
114.0440,125.0609
114.0440,126.1751
114.0590,126.3461
114.0590,126.3461
114.1182,126.5672
114.1182,126.5672
114.2099,126.7638
114.2150,126.7747
114.3463,126.9623
114.5082,127.1242
114.6958,127.2555
114.8206,127.3137
114.9032,127.3523
114.9033,127.3523
114.9033,127.3523
115.1244,127.4115
115.2873,127.4258
115.3525,127.4315
115.3525,127.4315
115.3525,127.4315
115.4095,127.4265
115.5806,127.4115
115.8017,127.3523
116.0092,127.2555
116.1968,127.1242
116.3587,126.9623
116.4900,126.7747
116.5223,126.7056
116.5684,126.6532
116.6356,126.6340
116.7025,126.6542
116.7464,126.7042
116.7499,126.7116
116.7974,126.8103
116.7974,126.8103
116.9319,126.9953
116.9319,126.9953
117.0972,127.1533
117.0972,127.1533
117.0972,127.1533
117.0972,127.1533
117.2880,127.2793
117.2880,127.2793
117.2880,127.2793
117.4983,127.3692
117.4983,127.3692
117.4983,127.3692
117.7213,127.4201
117.9497,127.4303
118.1764,127.3996
118.3939,127.3290
118.5952,127.2206
118.7740,127.0780
118.9245,126.9058
119.0418,126.7095
119.0481,126.6927
119.0901,126.6369
119.1556,126.6126
119.2238,126.6276
119.2731,126.6771
119.2759,126.6825
119.3374,126.8103
119.3374,126.8103
119.4719,126.9953
119.4719,126.9953
119.6372,127.1533
119.6372,127.1533
119.6372,127.1533
119.6372,127.1533
119.8280,127.2793
119.8280,127.2793
119.8280,127.2793
120.0383,127.3692
120.0383,127.3692
120.0383,127.3692
120.2613,127.4201
120.4897,127.4303
120.7164,127.3996
120.9339,127.3290
121.1352,127.2206
121.3140,127.0780
121.4645,126.9058
121.5818,126.7095
121.5881,126.6927
121.6301,126.6369
121.6956,126.6126
121.7638,126.6276
121.8131,126.6771
121.8159,126.6825
121.8774,126.8103
121.8774,126.8103
122.0119,126.9953
122.0119,126.9953
122.1772,127.1533
122.1772,127.1533
122.1772,127.1533
122.1772,127.1533
122.3680,127.2793
122.3680,127.2793
122.3680,127.2793
122.5783,127.3692
122.5783,127.3692
122.5783,127.3692
122.8013,127.4201
123.0297,127.4303
123.2564,127.3996
123.4739,127.3290
123.6752,127.2206
123.8540,127.0780
124.0045,126.9058
124.1218,126.7095
124.1281,126.6927
124.1701,126.6369
124.2356,126.6126
124.3038,126.6276
124.3531,126.6771
124.3559,126.6825
124.4174,126.8103
124.4174,126.8103
124.5519,126.9953
124.5519,126.9953
124.7172,127.1533
124.7172,127.1533
124.7172,127.1533
124.7172,127.1533
124.9080,127.2793
124.9080,127.2793
124.9080,127.2793
125.1183,127.3692
125.1183,127.3692
125.1183,127.3692
125.3413,127.4201
125.5697,127.4303
125.7964,127.3996
126.0139,127.3290
126.2152,127.2206
126.3940,127.0780
126.5445,126.9058
126.6618,126.7095
126.6618,126.7095
126.6647,126.7047
126.6658,126.7054
126.7082,126.6584
126.7757,126.6400
126.8423,126.6611
126.8855,126.7116
126.9099,126.7638
126.9215,126.8162
126.9215,130.8469
126.9198,130.8674
126.9193,130.8703
126.9193,130.8703
126.9215,130.9615
126.9215,130.9644
126.9215,131.0026
126.9223,131.0113
126.9229,131.0201
126.9243,131.0820
126.9243,131.0820
126.9312,131.1136
126.9335,131.1282
126.9337,131.1307
126.9205,131.1993
126.8723,131.2499
126.8103,131.2665
106.9725,131.2665
106.9055,131.2468
106.8597,131.1940
106.8485,131.1425
106.8485,119.5923
115.5403,119.5923
115.5403,122.4165
119.1504,122.4165
119.1504,119.5923
115.5403,119.5923
106.8485,119.5923
106.8485,119.1055
106.8682,119.0384
106.9210,118.9927
106.9725,118.9815
126.3397,118.9815
126.3397,117.5052
126.3594,117.4382
126.4122,117.3924
126.4813,117.3825
126.5227,117.3961
126.6654,117.4734
126.6654,117.4734
126.9005,117.5541
127.1457,117.5950
127.3943,117.5950
127.6395,117.5541
127.8746,117.4734
127.8746,117.4734
128.0932,117.3551
128.0932,117.3551
128.1401,117.3186
127.4025,116.5811
127.4123,116.5797
127.5431,116.5200
127.6518,116.4258
127.7295,116.3048
127.7531,116.2245
128.4934,116.9649
128.5937,116.8114
128.6936,116.5837
128.7546,116.3427
128.7546,116.3427
128.7751,116.0950
128.7751,116.0950
128.7546,115.8473
128.7546,115.8473
128.6936,115.6063
128.5937,115.3786
128.4934,115.2251
127.7531,115.9655
127.7295,115.8852
127.6518,115.7642
127.5431,115.6700
127.4123,115.6103
127.4025,115.6089
128.1401,114.8714
128.0932,114.8349
127.8746,114.7166
127.8746,114.7166
127.6395,114.6359
127.3943,114.5950
127.1457,114.5950
126.9005,114.6359
126.6654,114.7166
126.6654,114.7166
126.5227,114.7939
126.4544,114.8084
126.3890,114.7838
126.3473,114.7277
126.3397,114.6848
126.3397,112.4153
126.3594,112.3482
126.4122,112.3025
126.4813,112.2925
126.5398,112.3174
126.6268,112.3851
126.6268,112.3851
126.8454,112.5034
126.8454,112.5034
127.0805,112.5841
127.3257,112.6250
127.5743,112.6250
127.8195,112.5841
128.0546,112.5034
128.0546,112.5034
128.2732,112.3851
128.2732,112.3851
128.3201,112.3486
127.5825,111.6111
127.5923,111.6097
127.7231,111.5500
127.8318,111.4558
127.9095,111.3348
127.9331,111.2545
Z" /> 
<path style="fill:#000000; fill-opacity:1.0000; 
stroke:#000000; stroke-width:0.0000; stroke-opacity:1; 
stroke-linecap:round; stroke-linejoin:round;fill-rule:evenodd;"
d="M 191.2545,77.8632
191.3003,77.9160
191.3115,77.9675
191.3115,131.1425
191.2918,131.2095
191.2390,131.2553
191.1875,131.2665
182.8705,131.2665
182.8034,131.2468
182.7577,131.1940
182.7477,131.1249
182.7553,131.0964
182.7611,131.0820
182.7684,131.0637
182.8085,130.8558
182.8085,126.3170
182.8282,126.2500
182.8810,126.2042
182.9501,126.1943
183.0003,126.2132
183.2084,126.3492
183.2536,126.3690
183.4361,126.4491
183.6772,126.5101
183.6772,126.5101
183.6772,126.5101
183.6772,126.5101
183.8306,126.5228
183.8629,126.5255
183.8629,126.5255
183.9871,126.5255
183.9871,126.5255
184.0497,126.5203
184.1728,126.5101
184.1728,126.5101
184.1728,126.5101
184.4139,126.4491
184.6416,126.3492
184.8498,126.2132
185.0327,126.0447
185.1855,125.8485
185.3038,125.6298
185.3846,125.3946
185.4255,125.1493
185.4255,124.9007
185.3846,124.6554
185.3038,124.4202
185.3036,124.4198
185.2340,124.2911
185.1855,124.2015
185.0327,124.0053
184.8498,123.8368
184.8498,123.8368
184.6416,123.7008
184.4139,123.6009
184.1728,123.5399
184.1728,123.5399
183.9871,123.5245
183.9871,123.5245
183.9317,123.5245
183.8646,123.5048
183.8189,123.4520
183.8088,123.3919
183.8085,123.3919
183.8085,123.3903
183.8082,123.3887
183.8085,123.3860
183.8085,120.9950
183.8282,120.9280
183.8810,120.8822
183.9501,120.8723
184.0137,120.9013
184.0495,120.9540
184.0573,120.9762
184.0691,120.9950
184.1482,121.1209
184.2691,121.2418
184.4138,121.3327
184.5751,121.3892
184.5752,121.3892
184.7450,121.4083
184.7450,121.4083
184.7450,121.4083
184.9148,121.3892
184.9148,121.3892
184.9149,121.3892
185.0762,121.3327
185.2209,121.2418
185.3418,121.1209
185.4327,120.9762
185.4892,120.8148
185.5083,120.6450
185.4892,120.4751
185.4327,120.3138
185.3418,120.1691
185.2209,120.0482
185.2209,120.0482
185.0762,119.9573
184.9148,119.9008
184.9148,119.9008
184.7450,119.8817
184.7450,119.8817
184.5752,119.9008
184.5751,119.9008
184.4138,119.9573
184.2691,120.0482
184.1482,120.1691
184.0573,120.3138
184.0495,120.3360
184.0088,120.3927
183.9439,120.4185
183.8753,120.4050
183.8249,120.3566
183.8085,120.2950
183.8085,108.5029
183.8102,108.4823
183.8107,108.4795
183.8107,108.4794
183.8085,108.3883
183.8085,108.3853
183.8085,108.3472
183.8085,108.3472
183.8077,108.3385
183.8071,108.3296
183.8067,108.3122
183.8057,108.2678
183.7988,108.2361
183.7965,108.2216
183.7934,108.1893
183.7760,108.1299
183.7738,108.1214
183.7607,108.0609
183.7479,108.0311
183.7429,108.0173
183.7338,107.9861
183.7054,107.9312
183.7017,107.9232
183.6773,107.8663
183.6773,107.8663
183.6773,107.8663
183.6591,107.8395
183.6516,107.8268
183.6507,107.8250
183.6368,107.7980
183.5986,107.7494
183.5933,107.7422
183.5587,107.6910
183.5587,107.6910
183.5357,107.6681
183.5260,107.6571
183.5059,107.6316
183.4592,107.5911
183.4527,107.5850
183.2409,107.3732
183.2074,107.3119
183.2049,107.2952
183.1945,107.1633
183.1945,107.1633
183.1391,106.9324
183.1391,106.9324
183.1391,106.9324
183.0482,106.7130
183.0482,106.7130
182.9242,106.5106
182.9242,106.5106
182.8423,106.4148
182.7700,106.3300
182.5901,106.1764
182.5894,106.1758
182.5894,106.1758
182.3870,106.0518
182.3870,106.0518
182.1676,105.9609
181.9367,105.9055
181.7000,105.8868
181.4633,105.9055
181.2324,105.9609
181.2324,105.9609
181.0130,106.0518
181.0130,106.0518
180.8106,106.1758
180.8106,106.1758
180.6648,106.3003
180.6300,106.3300
180.5577,106.4148
180.4953,106.4878
180.4368,106.5260
180.3882,106.5306
180.3834,106.5301
179.6431,107.2705
179.6195,107.1902
179.5418,107.0692
179.4331,106.9750
179.3023,106.9153
179.2925,106.9139
180.0301,106.1764
180.0301,106.1764
179.9832,106.1399
179.7646,106.0216
179.7646,106.0216
179.5295,105.9409
179.2843,105.9000
179.0357,105.9000
178.7905,105.9409
178.5554,106.0216
178.5554,106.0216
178.3368,106.1399
178.2899,106.1764
178.2899,106.1764
179.0275,106.9139
179.0177,106.9153
178.8869,106.9750
178.7782,107.0692
178.7005,107.1902
178.6769,107.2705
177.9366,106.5301
177.8363,106.6836
177.7364,106.9113
177.6754,107.1523
177.6754,107.1523
177.6549,107.4000
177.6549,107.4000
177.6754,107.6477
177.6754,107.6477
177.7364,107.8887
177.8363,108.1164
177.9366,108.2699
178.6769,107.5295
178.7005,107.6098
178.7782,107.7308
178.8869,107.8250
179.0177,107.8847
179.0275,107.8861
178.2899,108.6236
178.3368,108.6601
178.3368,108.6601
178.5554,108.7784
178.5554,108.7784
178.7905,108.8591
179.0357,108.9000
179.2843,108.9000
179.5295,108.8591
179.7646,108.7784
179.7646,108.7784
179.9832,108.6601
179.9832,108.6601
180.0301,108.6236
179.2925,107.8861
179.3023,107.8847
179.4331,107.8250
179.5418,107.7308
179.6195,107.6098
179.6431,107.5295
180.3834,108.2699
180.3882,108.2694
180.4569,108.2821
180.4953,108.3122
180.6300,108.4700
180.7698,108.5893
180.8106,108.6242
180.8106,108.6242
181.0130,108.7482
181.0130,108.7482
181.2324,108.8391
181.2324,108.8391
181.2324,108.8391
181.4633,108.8945
181.4730,108.8953
181.4772,108.8956
181.5425,108.9205
181.5840,108.9767
181.5915,109.0192
181.5915,114.7106
181.5718,114.7776
181.5190,114.8234
181.4499,114.8333
181.3863,114.8043
181.3659,114.7817
181.2981,114.6848
181.2812,114.6607
181.1193,114.4988
180.9317,114.3675
180.9317,114.3675
180.7242,114.2707
180.7242,114.2707
180.5031,114.2115
180.5031,114.2115
180.2750,114.1915
180.2750,114.1915
180.0469,114.2115
180.0469,114.2115
179.8258,114.2707
179.8257,114.2707
179.6183,114.3675
179.6183,114.3675
179.6183,114.3675
179.4307,114.4988
179.4307,114.4988
179.4307,114.4988
179.3367,114.5928
179.2753,114.6263
179.2057,114.6213
179.1613,114.5928
179.0738,114.5053
178.8875,114.3749
178.6813,114.2787
178.4850,114.2261
178.4850,115.3695
178.3773,115.3203
178.2708,115.3050
178.1992,115.3050
178.0927,115.3203
177.9850,115.3695
177.9850,114.2261
177.7887,114.2787
177.5825,114.3749
177.3962,114.5053
177.2353,114.6662
177.1049,114.8525
177.0087,115.0587
177.0087,115.0587
176.9499,115.2784
176.9499,115.2784
176.9350,115.4482
176.9350,115.5550
177.8013,115.5550
177.7755,115.5952
177.7350,115.7331
177.7350,115.8769
177.7755,116.0148
177.8013,116.0550
176.9350,116.0550
176.9350,116.1618
176.9499,116.3316
176.9499,116.3316
177.0087,116.5513
177.0087,116.5513
177.0268,116.5901
177.0373,116.6592
177.0088,116.7230
176.9503,116.7612
176.9465,116.7623
176.7658,116.8107
176.7657,116.8107
176.5583,116.9075
176.5583,116.9075
176.5583,116.9075
176.3707,117.0388
176.3707,117.0388
176.3707,117.0388
176.2088,117.2007
176.2088,117.2007
176.2088,117.2007
176.1561,117.2760
176.0775,117.3883
176.0775,117.3883
175.9807,117.5957
175.9807,117.5958
175.9215,117.8169
175.9215,117.8169
175.9065,117.9879
175.9065,118.7021
175.9215,118.8731
175.9215,118.8731
175.9807,119.0942
175.9807,119.0942
176.0743,119.2950
176.0775,119.3017
176.2088,119.4893
176.3707,119.6512
176.5583,119.7825
176.6831,119.8407
176.7657,119.8793
176.7658,119.8793
176.7658,119.8793
176.9869,119.9385
177.1498,119.9528
177.2150,119.9585
177.2150,119.9585
177.2150,119.9585
177.2720,119.9535
177.4431,119.9385
177.6642,119.8793
177.8717,119.7825
178.0414,119.6637
178.1076,119.6414
178.1753,119.6584
178.2232,119.7094
178.2365,119.7653
178.2365,122.2714
178.2343,122.2948
178.2315,122.3091
178.2315,128.1175
178.2118,128.1845
178.1590,128.2303
178.1075,128.2415
162.9284,128.2415
162.8613,128.2218
162.8156,128.1690
162.8056,128.0999
162.8112,128.0769
162.8422,127.9875
162.8422,127.9875
162.8422,127.9875
162.8723,127.7780
162.8686,127.7015
162.8685,127.6957
162.8685,125.1993
164.9245,125.1993
164.9654,125.4446
165.0462,125.6798
165.0462,125.6798
165.1375,125.8485
165.1645,125.8985
165.3173,126.0947
165.4578,126.2242
165.5002,126.2632
165.7084,126.3992
165.9361,126.4991
166.1749,126.5595
166.1772,126.5601
166.1772,126.5601
166.1772,126.5601
166.3306,126.5728
166.3629,126.5755
166.3629,126.5755
166.4871,126.5755
166.4871,126.5755
166.5497,126.5703
166.6728,126.5601
166.6728,126.5601
166.6728,126.5601
166.9139,126.4991
167.1416,126.3992
167.3498,126.2632
167.5327,126.0947
167.6855,125.8985
167.8038,125.6798
167.8846,125.4446
167.9255,125.1993
167.9255,125.1993
171.9995,125.1993
172.0404,125.4446
172.1212,125.6798
172.1212,125.6798
172.2125,125.8485
172.2395,125.8985
172.3923,126.0947
172.5328,126.2242
172.5752,126.2632
172.7834,126.3992
173.0111,126.4991
173.2499,126.5595
173.2522,126.5601
173.2522,126.5601
173.2522,126.5601
173.4056,126.5728
173.4379,126.5755
173.4379,126.5755
173.5621,126.5755
173.5621,126.5755
173.6247,126.5703
173.7478,126.5601
173.7478,126.5601
173.7478,126.5601
173.9889,126.4991
174.2166,126.3992
174.4248,126.2632
174.6077,126.0947
174.7605,125.8985
174.8788,125.6798
174.9596,125.4446
175.0005,125.1993
175.0005,124.9507
174.9596,124.7054
174.8788,124.4702
174.7605,124.2515
174.6077,124.0553
174.4248,123.8868
174.4248,123.8868
174.2166,123.7508
173.9889,123.6509
173.7478,123.5899
173.7478,123.5899
173.5621,123.5745
173.5621,123.5745
173.4379,123.5745
173.4379,123.5745
173.2522,123.5899
173.2522,123.5899
173.0111,123.6509
172.7834,123.7508
172.5752,123.8868
172.3923,124.0553
172.2395,124.2515
172.1212,124.4702
172.1212,124.4702
172.0404,124.7054
171.9995,124.9507
171.9995,125.1993
167.9255,125.1993
167.9255,124.9507
167.8846,124.7054
167.8038,124.4702
167.6855,124.2515
167.5327,124.0553
167.3498,123.8868
167.3498,123.8868
167.1416,123.7508
166.9139,123.6509
166.6728,123.5899
166.6728,123.5899
166.4871,123.5745
166.4871,123.5745
166.3629,123.5745
166.3629,123.5745
166.1772,123.5899
166.1772,123.5899
165.9361,123.6509
165.7084,123.7508
165.5002,123.8868
165.3173,124.0553
165.1645,124.2515
165.0462,124.4702
165.0462,124.4702
164.9654,124.7054
164.9245,124.9507
164.9245,125.1993
162.8685,125.1993
162.8685,122.7022
162.8591,122.6033
162.8585,122.5916
162.8585,120.6450
166.4317,120.6450
166.4508,120.8148
166.4508,120.8148
166.4995,120.9540
166.5073,120.9762
166.5982,121.1209
166.7191,121.2418
166.8638,121.3327
167.0251,121.3892
167.0252,121.3892
167.1950,121.4083
167.1950,121.4083
167.1950,121.4083
167.3648,121.3892
167.3648,121.3892
167.3648,121.3892
167.5262,121.3327
167.6709,121.2418
167.7918,121.1209
167.8827,120.9762
167.9392,120.8148
167.9583,120.6450
171.9817,120.6450
172.0008,120.8148
172.0008,120.8148
172.0495,120.9540
172.0573,120.9762
172.1482,121.1209
172.2691,121.2418
172.4138,121.3327
172.5751,121.3892
172.5752,121.3892
172.7450,121.4083
172.7450,121.4083
172.7450,121.4083
172.9148,121.3892
172.9148,121.3892
172.9149,121.3892
173.0762,121.3327
173.2209,121.2418
173.3418,121.1209
173.4327,120.9762
173.4892,120.8148
173.5083,120.6450
173.4892,120.4751
173.4327,120.3138
173.3418,120.1691
173.2209,120.0482
173.2209,120.0482
173.0762,119.9573
172.9148,119.9008
172.9148,119.9008
172.7450,119.8817
172.7450,119.8817
172.5752,119.9008
172.5751,119.9008
172.4138,119.9573
172.2691,120.0482
172.1482,120.1691
172.0573,120.3138
172.0008,120.4751
172.0008,120.4752
171.9817,120.6450
171.9817,120.6450
167.9583,120.6450
167.9583,120.6450
167.9392,120.4751
167.8827,120.3138
167.7918,120.1691
167.6709,120.0482
167.6709,120.0482
167.5262,119.9573
167.3648,119.9008
167.3648,119.9008
167.1950,119.8817
167.1950,119.8817
167.0252,119.9008
167.0251,119.9008
166.8638,119.9573
166.7191,120.0482
166.5982,120.1691
166.5073,120.3138
166.4508,120.4751
166.4508,120.4752
166.4317,120.6450
166.4317,120.6450
162.8585,120.6450
162.8585,119.2950
162.8701,119.2426
162.8805,119.2203
162.9393,119.0942
162.9985,118.8731
163.0135,118.7021
163.0135,117.9879
162.9985,117.8169
162.9393,117.5958
162.9215,117.5577
162.9110,117.4886
162.9395,117.4248
162.9980,117.3866
163.0018,117.3855
163.1742,117.3393
163.3817,117.2425
163.5693,117.1112
163.7312,116.9493
163.8625,116.7617
163.9593,116.5542
164.0185,116.3331
164.0335,116.1621
164.0335,115.4479
164.0185,115.2769
163.9593,115.0558
163.8625,114.8483
163.8625,114.8482
163.8625,114.8482
163.8559,114.8388
163.8336,114.7726
163.8335,114.7677
163.8335,106.6575
163.8532,106.5905
163.9060,106.5447
163.9575,106.5335
171.6728,106.5335
171.6728,106.5335
171.8307,106.5184
172.0339,106.4588
172.2220,106.3618
172.3884,106.2309
172.5271,106.0709
172.6329,105.8876
172.7022,105.6875
172.7052,105.6661
172.7129,105.6376
172.7284,105.5987
172.7685,105.3908
172.7685,104.2087
172.7882,104.1417
172.8182,104.1094
172.8210,104.1073
172.9133,104.0383
173.0009,103.9212
173.0520,103.7842
173.0564,103.7432
173.0585,103.7237
173.0585,103.7236
173.0585,101.5264
173.0585,101.5263
173.0541,101.4853
173.0520,101.4658
173.0438,101.4438
173.0190,101.3774
173.0009,101.3288
172.9133,101.2117
172.7962,101.1241
172.7637,101.1120
172.6592,101.0730
172.5987,101.0665
172.5986,101.0665
170.4014,101.0665
170.4013,101.0665
170.3408,101.0730
170.2363,101.1120
170.2038,101.1241
170.2038,101.1241
170.1958,101.1271
170.1261,101.1321
170.0648,101.0986
170.0313,101.0373
170.0285,101.0109
170.0285,98.8522
170.0243,98.8085
170.0134,98.6943
169.9538,98.4911
169.8568,98.3030
169.7259,98.1366
169.7259,98.1366
169.5659,97.9979
169.5659,97.9979
169.3826,97.8921
169.3826,97.8921
169.3826,97.8921
169.3210,97.8708
169.1825,97.8228
169.1216,97.8141
169.1158,97.8131
168.9258,97.7765
168.9258,97.7765
123.0672,97.7765
122.9724,97.7855
122.9093,97.7916
122.8958,97.7955
122.8668,97.8004
122.8115,97.8030
122.6058,97.8530
122.6058,97.8530
122.4132,97.9409
122.4132,97.9409
122.2408,98.0637
122.2408,98.0637
122.0947,98.2169
121.9802,98.3950
121.9016,98.5915
121.8615,98.7994
121.8615,101.3383
121.8418,101.4053
121.8391,101.4094
121.8350,101.4152
121.8350,101.4153
121.8149,101.4583
121.7687,101.5108
121.7015,101.5299
121.6346,101.5097
121.5901,101.4583
121.5700,101.4153
121.5530,101.3910
121.4387,101.2277
121.2768,101.0658
121.0892,100.9345
121.0892,100.9345
120.8817,100.8377
120.8817,100.8377
120.6606,100.7785
120.6606,100.7785
120.4325,100.7585
120.4325,100.7585
120.2044,100.7785
120.2044,100.7785
119.9833,100.8377
119.9832,100.8377
119.7758,100.9345
119.7758,100.9345
119.7758,100.9345
119.5882,101.0658
119.5882,101.0658
119.5882,101.0658
119.4263,101.2277
119.4263,101.2277
119.4263,101.2277
119.3830,101.2895
119.2950,101.4153
119.2950,101.4153
119.2702,101.4684
119.2240,101.5208
119.1568,101.5400
119.0899,101.5198
119.0454,101.4684
119.0226,101.4195
118.8922,101.2332
118.7313,101.0723
118.5450,100.9419
118.3388,100.8457
118.1425,100.7931
118.1425,102.1365
118.0348,102.0873
117.9283,102.0720
117.8567,102.0720
117.7502,102.0873
117.6425,102.1365
117.6425,100.7931
117.4462,100.8457
117.2400,100.9419
117.0537,101.0723
116.8928,101.2332
116.7624,101.4195
116.7573,101.4305
116.7111,101.4829
116.6439,101.5021
116.5770,101.4818
116.5738,101.4796
116.5093,101.4345
116.5092,101.4345
116.3017,101.3377
116.3017,101.3377
116.0806,101.2785
116.0806,101.2785
115.9096,101.2635
115.9096,101.2635
114.7954,101.2635
114.7954,101.2635
114.6244,101.2785
114.6244,101.2785
114.4033,101.3377
114.4032,101.3377
114.1958,101.4345
114.1957,101.4345
114.1863,101.4411
114.1201,101.4634
114.1152,101.4635
111.9327,101.4635
111.8656,101.4438
111.8199,101.3910
111.8099,101.3219
111.8390,101.2583
111.8803,101.2271
112.0025,101.1701
112.1888,101.0397
112.3497,100.8788
112.4801,100.6925
112.5763,100.4863
112.5763,100.4863
112.6289,100.2900
111.2837,100.2900
111.3095,100.2498
111.3500,100.1119
111.3500,99.9681
111.3095,99.8302
111.2837,99.7900
112.6289,99.7900
112.6289,99.7900
112.5763,99.5937
112.5763,99.5937
112.4801,99.3875
112.3497,99.2012
112.1888,99.0403
112.0025,98.9099
112.0025,98.9099
111.9786,98.8987
111.9262,98.8526
111.9070,98.7854
111.9272,98.7185
111.9786,98.6740
112.0567,98.6375
112.0662,98.6309
112.1324,98.6086
112.1373,98.6085
115.3178,98.6085
115.3178,98.6085
115.4757,98.5934
115.5570,98.5696
115.6789,98.5338
115.6789,98.5338
115.6789,98.5338
115.6789,98.5338
115.6843,98.5316
115.6845,98.5319
115.7050,98.5242
115.7542,98.5123
115.9468,98.4244
116.1172,98.3030
116.1192,98.3016
116.1192,98.3016
116.1192,98.3016
116.2653,98.1483
116.2729,98.1366
116.3225,98.0593
116.3798,97.9703
116.4584,97.7737
116.4985,97.5658
116.4985,89.8458
116.5182,89.7787
116.5677,89.7346
116.5767,89.7301
116.8228,89.5656
117.0454,89.3704
117.2406,89.1478
117.4051,88.9017
117.5361,88.6361
117.5443,88.6120
117.6312,88.3558
117.6312,88.3558
117.6312,88.3558
117.6890,88.0654
117.7083,87.7700
121.9766,87.7700
121.9963,88.0578
121.9963,88.0578
122.0549,88.3402
122.0549,88.3402
122.1515,88.6119
122.1515,88.6120
122.2842,88.8681
122.4506,89.1038
122.4506,89.1038
122.4506,89.1038
122.6475,89.3146
122.8000,89.4387
122.8712,89.4966
123.1177,89.6465
123.1177,89.6465
123.1177,89.6465
123.2246,89.6929
123.3823,89.7614
123.6600,89.8392
123.8950,89.8715
123.9458,89.8785
123.9458,89.8785
124.2342,89.8785
124.2730,89.8732
124.5200,89.8392
124.7977,89.7614
125.0623,89.6465
125.3088,89.4966
125.5325,89.3146
125.7294,89.1038
125.8958,88.8681
126.0285,88.6120
126.1251,88.3402
126.1251,88.3402
126.1251,88.3402
126.1763,88.0937
126.1837,88.0578
126.2034,87.7700
126.1837,87.4822
126.1487,87.3137
126.1251,87.1998
126.1251,87.1998
126.0285,86.9280
126.0285,86.9280
125.8958,86.6719
125.7294,86.4362
125.7294,86.4362
125.5325,86.2254
125.3088,86.0434
125.0623,85.8935
124.7977,85.7786
124.5200,85.7008
124.5200,85.7008
124.5200,85.7008
124.3611,85.6789
124.2342,85.6615
124.2342,85.6615
123.9458,85.6615
123.9458,85.6615
123.6600,85.7008
123.6600,85.7008
123.3823,85.7786
123.1177,85.8935
122.8712,86.0434
122.6475,86.2254
122.4506,86.4362
122.4506,86.4362
122.2842,86.6719
122.1515,86.9280
122.0549,87.1998
122.0549,87.1998
121.9963,87.4822
121.9963,87.4822
121.9766,87.7700
117.7083,87.7700
117.6890,87.4746
117.6774,87.4164
117.6632,87.3450
117.6312,87.1842
117.6312,87.1842
117.5361,86.9039
117.5361,86.9039
117.4051,86.6383
117.4051,86.6383
117.2701,86.4362
117.2406,86.3922
117.1979,86.3434
117.0454,86.1696
116.8228,85.9744
116.5767,85.8099
116.5767,85.8099
116.3111,85.6789
116.3111,85.6789
116.0308,85.5838
116.0308,85.5838
115.7404,85.5260
115.7404,85.5260
115.7404,85.5260
115.4450,85.5067
115.1496,85.5260
115.1496,85.5260
115.1496,85.5260
114.8592,85.5838
114.8592,85.5838
114.5789,85.6789
114.5789,85.6789
114.3133,85.8099
114.3133,85.8099
114.0672,85.9744
113.8446,86.1696
113.6494,86.3922
113.4849,86.6383
113.4849,86.6383
113.3539,86.9039
113.3539,86.9039
113.2588,87.1842
113.2588,87.1842
113.2010,87.4746
113.2010,87.4746
113.2010,87.4746
113.1954,87.5602
113.1817,87.7700
113.2010,88.0654
113.2010,88.0654
113.2588,88.3558
113.2588,88.3558
113.3539,88.6361
113.3539,88.6361
113.4849,88.9017
113.4849,88.9017
113.5414,88.9863
113.6199,89.1038
113.6494,89.1478
113.8446,89.3704
114.0672,89.5656
114.0672,89.5656
114.0672,89.5656
114.2264,89.6720
114.2712,89.7256
114.2815,89.7751
114.2815,96.2675
114.2618,96.3345
114.2090,96.3803
114.1575,96.3915
112.1373,96.3915
112.0703,96.3718
112.0662,96.3691
112.0567,96.3625
112.0567,96.3625
111.8492,96.2657
111.8492,96.2657
111.6281,96.2065
111.6281,96.2065
111.4571,96.1915
111.4571,96.1915
110.2429,96.1915
110.2429,96.1915
110.0719,96.2065
110.0719,96.2065
109.8508,96.2657
109.8507,96.2657
109.7549,96.3104
109.6858,96.3209
109.6220,96.2924
109.5838,96.2339
109.5785,96.1980
109.5785,92.3330
109.5982,92.2660
109.6501,92.2206
109.6567,92.2175
109.8443,92.0862
110.0062,91.9243
110.1375,91.7367
110.2343,91.5292
110.2935,91.3081
110.3135,91.0800
110.2935,90.8519
110.2343,90.6308
110.1375,90.4233
110.0062,90.2357
109.8443,90.0738
109.6567,89.9425
109.6036,89.9177
109.5512,89.8715
109.5320,89.8043
109.5522,89.7374
109.6036,89.6929
109.6525,89.6701
109.8388,89.5397
109.9997,89.3788
110.1301,89.1925
110.2263,88.9863
110.2263,88.9863
110.2789,88.7900
108.9337,88.7900
108.9595,88.7498
109.0000,88.6119
109.0000,88.4681
108.9595,88.3302
108.9337,88.2900
110.2789,88.2900
110.2789,88.2900
110.2263,88.0937
110.2263,88.0937
110.1301,87.8875
109.9997,87.7012
109.8388,87.5403
109.6525,87.4099
109.4463,87.3137
109.4463,87.3137
109.2266,87.2549
109.2266,87.2549
109.0568,87.2400
108.7500,87.2400
108.7500,88.1045
108.6423,88.0553
108.5358,88.0400
108.4642,88.0400
108.3577,88.0553
108.2500,88.1045
108.2500,87.2400
107.9432,87.2400
107.7734,87.2549
107.7734,87.2549
107.5537,87.3137
107.5537,87.3137
107.3475,87.4099
107.1612,87.5403
107.0602,87.6413
106.9989,87.6748
106.9292,87.6698
106.8732,87.6280
106.8488,87.5625
106.8485,87.5537
106.8485,84.6167
127.6431,84.6167
127.6431,91.5064
173.6946,91.5064
173.6946,87.7700
177.5866,87.7700
177.6063,88.0578
177.6063,88.0578
177.6649,88.3402
177.6649,88.3402
177.7615,88.6119
177.7615,88.6120
177.8942,88.8681
178.0606,89.1038
178.0606,89.1038
178.0606,89.1038
178.2575,89.3146
178.4100,89.4387
178.4812,89.4966
178.7277,89.6465
178.7277,89.6465
178.7277,89.6465
178.8346,89.6929
178.9923,89.7614
179.2700,89.8392
179.5050,89.8715
179.5558,89.8785
179.5558,89.8785
179.8442,89.8785
179.8830,89.8732
180.1300,89.8392
180.4077,89.7614
180.6723,89.6465
180.9188,89.4966
181.1425,89.3146
181.3394,89.1038
181.5058,88.8681
181.6385,88.6120
181.7351,88.3402
181.7351,88.3402
181.7351,88.3402
181.7863,88.0937
181.7937,88.0578
181.8134,87.7700
185.1902,87.7700
185.2095,88.0643
185.2095,88.0643
185.2670,88.3536
185.2670,88.3536
185.3618,88.6329
185.4923,88.8974
185.4923,88.8974
185.6561,89.1426
185.6854,89.1760
186.9619,87.8995
186.9855,87.9798
187.0632,88.1008
187.1719,88.1950
187.3027,88.2547
187.3125,88.2561
186.0390,89.5296
186.0724,89.5589
186.3176,89.7227
186.3176,89.7227
186.5821,89.8532
186.8614,89.9480
186.8614,89.9480
187.1507,90.0055
187.1507,90.0055
187.4450,90.0248
187.7393,90.0055
187.7393,90.0055
188.0286,89.9480
188.0286,89.9480
188.3079,89.8532
188.5724,89.7227
188.5724,89.7227
188.8176,89.5589
188.8510,89.5296
187.5775,88.2561
187.5873,88.2547
187.7181,88.1950
187.8268,88.1008
187.9045,87.9798
187.9281,87.8995
189.2046,89.1760
189.2339,89.1426
189.3977,88.8974
189.3977,88.8974
189.5282,88.6329
189.6230,88.3536
189.6230,88.3536
189.6805,88.0643
189.6805,88.0643
189.6998,87.7700
189.6805,87.4757
189.6805,87.4757
189.6230,87.1864
189.6230,87.1864
189.5282,86.9071
189.3977,86.6426
189.3977,86.6426
189.2339,86.3974
189.2046,86.3640
187.9281,87.6405
187.9045,87.5602
187.8268,87.4392
187.7181,87.3450
187.5873,87.2853
187.5775,87.2839
188.8510,86.0104
188.8176,85.9811
188.5724,85.8173
188.5724,85.8173
188.3079,85.6868
188.0286,85.5920
188.0286,85.5920
187.7393,85.5345
187.7393,85.5345
187.4450,85.5152
187.1507,85.5345
187.1507,85.5345
186.8614,85.5920
186.8614,85.5920
186.5821,85.6868
186.3176,85.8173
186.3176,85.8173
186.0723,85.9811
186.0723,85.9811
186.0390,86.0104
186.0390,86.0104
187.3125,87.2839
187.3027,87.2853
187.1719,87.3450
187.0632,87.4392
186.9855,87.5602
186.9619,87.6405
185.6854,86.3640
185.6854,86.3640
185.6561,86.3973
185.6561,86.3973
185.4923,86.6426
185.4923,86.6426
185.3618,86.9071
185.2670,87.1864
185.2670,87.1864
185.2095,87.4757
185.2095,87.4757
185.1902,87.7700
181.8134,87.7700
181.7937,87.4822
181.7587,87.3137
181.7351,87.1998
181.7351,87.1998
181.6385,86.9280
181.6385,86.9280
181.5058,86.6719
181.3394,86.4362
181.3394,86.4362
181.1425,86.2254
180.9188,86.0434
180.6723,85.8935
180.4077,85.7786
180.1300,85.7008
180.1300,85.7008
180.1300,85.7008
179.9711,85.6789
179.8442,85.6615
179.8442,85.6615
179.5558,85.6615
179.5558,85.6615
179.2700,85.7008
179.2700,85.7008
178.9923,85.7786
178.7277,85.8935
178.4812,86.0434
178.2575,86.2254
178.0606,86.4362
178.0606,86.4362
177.8942,86.6719
177.7615,86.9280
177.6649,87.1998
177.6649,87.1998
177.6063,87.4822
177.6063,87.4822
177.5866,87.7700
173.6946,87.7700
173.6946,84.6167
127.6431,84.6167
106.8485,84.6167
106.8485,77.9675
106.8682,77.9005
106.9210,77.8547
106.9725,77.8435
191.1875,77.8435
Z" /> 
<path style="fill:#000000; fill-opacity:1.0000; 
stroke:#000000; stroke-width:0.0000; stroke-opacity:1; 
stroke-linecap:round; stroke-linejoin:round;fill-rule:evenodd;"
d="M 107.0537,91.9846
107.0602,91.9907
107.1557,92.0862
107.3086,92.1933
107.3522,92.2479
107.3615,92.2949
107.3615,102.6178
107.3766,102.7757
107.4362,102.9789
107.5332,103.1670
107.6559,103.3230
107.6641,103.3334
107.8241,103.4721
107.8241,103.4721
107.9337,103.5353
108.0074,103.5779
108.2075,103.6472
108.4170,103.6773
108.4290,103.6767
108.4584,103.6788
108.4622,103.6795
108.4671,103.6805
108.4671,103.6805
108.4672,103.6805
114.1152,103.6805
114.1822,103.7002
114.1863,103.7029
114.1958,103.7095
114.3132,103.7643
114.4032,103.8063
114.4033,103.8063
114.4033,103.8063
114.6244,103.8655
114.7954,103.8805
114.7954,103.8805
114.7954,103.8805
115.9096,103.8805
115.9096,103.8805
116.0806,103.8655
116.3017,103.8063
116.5092,103.7095
116.5738,103.6644
116.6400,103.6420
116.7077,103.6590
116.7555,103.7100
116.7573,103.7135
116.7624,103.7245
116.8928,103.9108
117.0537,104.0717
117.2400,104.2021
117.4462,104.2983
117.4462,104.2983
117.6425,104.3509
117.6425,104.3509
117.6425,103.0075
117.7502,103.0567
117.8567,103.0720
117.9283,103.0720
118.0348,103.0567
118.1425,103.0075
118.1425,104.3509
118.3388,104.2983
118.3388,104.2983
118.5450,104.2021
118.7313,104.0717
118.8922,103.9108
119.0226,103.7245
119.0454,103.6756
119.0916,103.6232
119.1588,103.6040
119.2257,103.6242
119.2702,103.6756
119.2817,103.7002
119.2950,103.7288
119.3016,103.7382
119.3239,103.8044
119.3240,103.8093
119.3240,105.1753
119.3391,105.3332
119.3391,105.3332
119.3549,105.3873
119.3598,105.4163
119.3678,105.5835
119.4177,105.7892
119.4177,105.7892
119.5056,105.9818
119.5056,105.9818
119.6284,106.1542
119.6284,106.1542
119.7817,106.3003
119.9597,106.4148
119.9597,106.4148
120.1563,106.4934
120.2453,106.5106
120.3641,106.5335
120.3642,106.5335
161.4925,106.5335
161.5595,106.5532
161.6053,106.6060
161.6165,106.6575
161.6165,114.3320
161.5968,114.3991
161.5440,114.4448
161.4749,114.4548
161.4214,114.4336
161.3375,114.3749
161.1313,114.2787
160.9350,114.2261
160.9350,115.3695
160.8273,115.3203
160.7208,115.3050
160.6492,115.3050
160.5427,115.3203
160.4350,115.3695
160.4350,114.2261
160.2387,114.2787
160.0325,114.3749
159.8462,114.5053
159.6853,114.6662
159.5549,114.8525
159.4587,115.0587
159.4587,115.0587
159.3999,115.2784
159.3999,115.2784
159.3850,115.4482
159.3850,115.5550
160.2513,115.5550
160.2255,115.5952
160.1850,115.7331
160.1850,115.8769
160.2255,116.0148
160.2513,116.0550
159.3850,116.0550
159.3850,116.1618
159.3999,116.3316
159.3999,116.3316
159.4587,116.5513
159.4587,116.5513
159.4768,116.5901
159.4873,116.6592
159.4588,116.7230
159.4003,116.7612
159.3965,116.7623
159.2508,116.8013
159.2446,116.8030
159.1747,116.8013
159.1169,116.7622
159.0894,116.6979
159.0885,116.6832
159.0885,113.8731
159.0898,113.8555
159.0923,113.8380
159.0886,113.7615
159.0885,113.7556
159.0885,113.7322
159.0863,113.7089
159.0858,113.7030
159.0856,113.6972
159.0822,113.6265
159.0780,113.6093
159.0751,113.5919
159.0743,113.5834
159.0734,113.5743
159.0519,113.5009
159.0503,113.4952
159.0492,113.4905
159.0323,113.4208
159.0249,113.4047
159.0188,113.3881
159.0138,113.3711
159.0138,113.3711
159.0092,113.3622
158.9787,113.3031
158.9761,113.2978
158.9444,113.2282
158.9341,113.2138
158.9249,113.1987
158.9168,113.1830
158.8720,113.1260
158.8695,113.1228
158.8659,113.1181
158.8216,113.0558
158.8087,113.0436
158.7968,113.0305
158.7859,113.0166
158.7427,112.9791
158.7281,112.9665
158.7237,112.9625
158.6683,112.9097
158.6683,112.9097
158.6535,112.9001
158.6393,112.8895
158.6389,112.8892
158.6349,112.8858
158.6259,112.8779
158.6259,112.8779
158.5596,112.8397
158.5546,112.8366
158.4903,112.7952
158.4738,112.7887
158.4579,112.7809
158.4426,112.7721
158.4426,112.7721
158.4426,112.7721
158.4426,112.7721
158.3823,112.7512
158.3703,112.7471
158.3648,112.7450
158.2937,112.7166
158.2937,112.7166
158.2763,112.7132
158.2592,112.7086
158.2425,112.7028
158.2425,112.7028
158.2425,112.7028
158.1668,112.6920
158.1610,112.6910
158.0858,112.6765
158.0858,112.6765
158.0682,112.6765
158.0505,112.6752
158.0407,112.6738
158.0330,112.6727
158.0330,112.6727
157.9565,112.6764
157.9506,112.6765
138.4029,112.6765
138.3823,112.6748
138.3813,112.6746
138.3794,112.6743
138.3794,112.6743
138.2997,112.6762
138.2883,112.6765
138.2853,112.6765
138.2472,112.6765
138.2416,112.6770
138.2384,112.6773
138.2296,112.6779
138.1678,112.6793
138.1678,112.6793
138.1361,112.6862
138.1216,112.6885
138.0893,112.6916
138.0780,112.6949
138.0299,112.7090
138.0213,112.7112
137.9609,112.7243
137.9609,112.7243
137.9311,112.7371
137.9173,112.7421
137.8861,112.7512
137.8312,112.7796
137.8232,112.7833
137.7663,112.8077
137.7395,112.8259
137.7268,112.8334
137.6980,112.8482
137.6616,112.8769
137.6494,112.8864
137.6422,112.8917
137.5910,112.9263
137.5681,112.9493
137.5571,112.9590
137.5527,112.9625
137.5316,112.9791
137.5017,113.0135
137.4873,113.0266
137.4877,113.0271
137.4833,113.0309
137.4204,113.0969
137.4183,113.0990
137.3913,113.1260
137.3857,113.1328
137.3799,113.1394
137.3372,113.1842
137.3372,113.1842
137.3197,113.2114
137.3110,113.2233
137.2903,113.2484
137.2903,113.2484
137.2607,113.3026
137.2562,113.3102
137.2227,113.3622
137.2227,113.3622
137.2107,113.3924
137.2044,113.4057
137.1889,113.4341
137.1889,113.4342
137.1700,113.4930
137.1670,113.5014
137.1441,113.5588
137.1379,113.5906
137.1343,113.6049
137.1244,113.6358
137.1171,113.6972
137.1157,113.7059
137.1040,113.7666
137.1040,113.7991
137.1031,113.8138
137.0993,113.8460
137.0993,113.8460
137.1037,113.9077
137.1040,113.9165
137.1040,114.8625
137.0843,114.9295
137.0315,114.9753
136.9800,114.9865
135.9606,114.9865
135.8936,114.9668
135.8801,114.9568
135.7794,114.8708
135.7794,114.8708
135.5770,114.7468
135.5770,114.7468
135.3576,114.6559
135.1267,114.6005
134.8900,114.5818
134.6533,114.6005
134.4224,114.6559
134.4224,114.6559
134.3000,114.7066
134.2305,114.7141
134.1680,114.6828
134.1324,114.6227
134.1285,114.5921
134.1285,112.1956
134.1482,112.1286
134.1582,112.1151
134.2215,112.0410
134.2800,112.0028
134.2895,112.0019
135.0369,111.2545
135.0605,111.3348
135.1382,111.4558
135.2469,111.5500
135.3777,111.6097
135.3875,111.6111
134.6499,112.3486
134.6968,112.3851
134.6968,112.3851
134.9154,112.5034
134.9154,112.5034
135.1505,112.5841
135.3957,112.6250
135.6443,112.6250
135.8895,112.5841
136.1246,112.5034
136.1246,112.5034
136.3432,112.3851
136.3432,112.3851
136.3901,112.3486
135.6525,111.6111
135.6623,111.6097
135.7931,111.5500
135.9018,111.4558
135.9795,111.3348
136.0031,111.2545
136.7434,111.9949
136.8437,111.8414
136.9436,111.6137
137.0046,111.3727
137.0046,111.3727
137.0251,111.1250
137.0251,111.1250
137.0046,110.8773
137.0046,110.8773
136.9436,110.6363
136.8437,110.4086
136.7434,110.2551
136.0031,110.9955
135.9795,110.9152
135.9018,110.7942
135.7931,110.7000
135.6623,110.6403
135.6525,110.6389
136.3901,109.9014
136.3901,109.9014
136.3432,109.8649
136.1246,109.7466
136.1246,109.7466
135.8895,109.6659
135.6443,109.6250
135.3957,109.6250
135.1505,109.6659
134.9154,109.7466
134.9154,109.7466
134.6968,109.8649
134.6499,109.9014
134.6499,109.9014
135.3875,110.6389
135.3777,110.6403
135.2469,110.7000
135.1382,110.7942
135.0605,110.9152
135.0369,110.9955
134.2853,110.2438
134.2598,110.2391
134.2215,110.2090
134.0900,110.0550
133.9101,109.9014
133.9094,109.9008
133.9094,109.9008
133.7070,109.7768
133.7070,109.7768
133.4876,109.6859
133.2567,109.6305
133.0200,109.6118
132.7833,109.6305
132.5524,109.6859
132.5524,109.6859
132.3330,109.7768
132.3330,109.7768
132.1306,109.9008
132.1306,109.9008
131.9500,110.0550
131.7958,110.2356
131.7958,110.2356
131.6718,110.4380
131.6718,110.4380
131.5996,110.6123
131.5557,110.6667
131.4894,110.6888
131.4217,110.6715
131.3741,110.6204
131.3704,110.6123
131.2982,110.4380
131.2982,110.4380
131.1742,110.2356
131.1742,110.2356
131.1393,110.1948
131.0200,110.0550
130.8401,109.9014
130.8394,109.9008
130.8394,109.9008
130.6370,109.7768
130.6370,109.7768
130.4176,109.6859
130.1867,109.6305
129.9500,109.6118
129.7133,109.6305
129.4824,109.6859
129.4824,109.6859
129.2630,109.7768
129.2630,109.7768
129.0606,109.9008
129.0606,109.9008
128.8800,110.0550
128.7485,110.2090
128.6900,110.2472
128.6805,110.2481
127.9331,110.9955
127.9095,110.9152
127.8318,110.7942
127.7231,110.7000
127.5923,110.6403
127.5825,110.6389
128.3201,109.9014
128.3201,109.9014
128.2732,109.8649
128.0546,109.7466
128.0546,109.7466
127.8195,109.6659
127.5743,109.6250
127.3257,109.6250
127.0805,109.6659
126.8454,109.7466
126.8454,109.7466
126.6268,109.8649
126.5799,109.9014
126.5799,109.9014
127.3175,110.6389
127.3077,110.6403
127.1769,110.7000
127.0682,110.7942
126.9905,110.9152
126.9669,110.9955
126.2266,110.2551
126.1263,110.4086
126.0264,110.6363
125.9654,110.8773
125.9654,110.8773
125.9449,111.1250
125.9449,111.1250
125.9654,111.3727
125.9654,111.3727
126.0264,111.6137
126.1263,111.8414
126.2389,112.0137
126.2590,112.0806
126.2399,112.1478
126.1874,112.1939
126.1351,112.2055
106.9725,112.2055
106.9055,112.1858
106.8597,112.1330
106.8485,112.0815
106.8485,92.0784
106.8682,92.0113
106.9210,91.9656
106.9901,91.9556
Z" /> 
</g>
</g>
</g> 
</svg>
